<svg xmlns="http://www.w3.org/2000/svg" width="49.032" height="56.352" viewBox="0 0 49.032 56.352">
  <g id="flag-filled-shape" transform="translate(-8.232 -3)">
    <g id="Group_3685" data-name="Group 3685" transform="translate(8.232 3)">
      <path id="Path_5366" data-name="Path 5366" d="M12.289,0h-3.5a2.56,2.56,0,0,0-.342,5.1V55.172a1.18,1.18,0,0,0,1.18,1.18h1.82a1.18,1.18,0,0,0,1.18-1.18V5.1h0A2.56,2.56,0,0,0,12.289,0Z" transform="translate(-6.232)" fill="#fff"/>
      <path id="Path_5367" data-name="Path 5367" d="M60.581,8.259a23.255,23.255,0,0,0-8.395-1.517,50.556,50.556,0,0,0-11.4,1.731A50.057,50.057,0,0,1,29.53,10.189a22.643,22.643,0,0,1-7.588-1.262c-.361-.125-.808-.26-.808-.26v27.42a23.276,23.276,0,0,0,8.4,1.517,50.519,50.519,0,0,0,11.39-1.73,50.155,50.155,0,0,1,11.267-1.716,22.648,22.648,0,0,1,7.587,1.261A1.18,1.18,0,0,0,61.344,34.3V9.362A1.182,1.182,0,0,0,60.581,8.259Z" transform="translate(-12.344 -2.765)" fill="#fff"/>
      <g id="Path_5368" data-name="Path 5368" transform="translate(-12.344 -2.765)" fill="#e12d4d">
        <path d="M 29.53041839599609 24.60200119018555 C 26.93408393859863 24.60200119018555 24.5062198638916 24.36239624023438 22.1349983215332 23.87086296081543 L 22.1349983215332 9.138458251953125 C 24.50693893432617 9.615862846374512 26.93128776550293 9.848410606384277 29.53041839599609 9.848410606384277 C 33.46080017089844 9.848410606384277 37.25885009765625 9.310260772705078 40.93185043334961 8.789820671081543 C 44.56995010375977 8.274690628051758 48.3320198059082 7.742001056671143 52.18660736083984 7.742001056671143 C 55.06355285644531 7.742001056671143 57.73183822631836 8.035815238952637 60.34358978271484 8.640231132507324 L 60.34358978271484 23.33640480041504 C 60.19940948486328 23.32497787475586 60.06735610961914 23.30603218078613 59.98188018798828 23.28796005249023 C 57.48381805419922 22.75514030456543 54.93376922607422 22.49595069885254 52.18778991699219 22.49595069885254 C 48.25999069213867 22.49595069885254 44.45771026611328 23.03409004211426 40.78060913085938 23.55452156066895 C 37.14509963989258 24.06949996948242 33.38594055175781 24.60200119018555 29.53041839599609 24.60200119018555 Z" stroke="none"/>
        <path d="M 52.18660736083984 8.742000579833984 C 48.40245819091797 8.742000579833984 44.67585754394531 9.269670486450195 41.07213973999023 9.779930114746094 C 37.36483001708984 10.30523109436035 33.53128814697266 10.84841156005859 29.53041839599609 10.84841156005859 C 27.29877471923828 10.84841156005859 25.19123840332031 10.68097305297852 23.1349983215332 10.33886528015137 L 23.1349983215332 23.04667663574219 C 25.18706130981445 23.41966247558594 27.29372787475586 23.60200119018555 29.53041839599609 23.60200119018555 C 33.31546783447266 23.60200119018555 37.03915786743164 23.07453155517578 40.64048004150391 22.56439208984375 C 44.35184860229492 22.03911209106445 48.18956756591797 21.49595069885254 52.18778991699219 21.49595069885254 C 54.69628143310547 21.49595069885254 57.04703521728516 21.70715713500977 59.34358978271484 22.13986206054688 L 59.34358978271484 9.445001602172852 C 57.05239105224609 8.972412109375 54.7024040222168 8.742000579833984 52.18660736083984 8.742000579833984 M 52.18660736083984 6.742000579833984 C 55.14553833007813 6.742000579833984 57.89091873168945 7.045181274414063 60.58143615722656 7.668849945068359 C 61.04037857055664 7.775201797485352 61.34181976318359 8.043411254882813 61.34358978271484 8.342990875244141 L 61.34358978271484 23.58535003662109 C 61.34358978271484 23.81931114196777 61.48469924926758 24.13116073608398 61.173828125 24.26634216308594 C 61.03871917724609 24.32498359680176 60.82541656494141 24.3470573425293 60.59771728515625 24.3470573425293 C 60.30049133300781 24.3470573425293 59.97879791259766 24.30941390991211 59.77504730224609 24.26634216308594 C 57.34289932250977 23.74758148193359 54.86119842529297 23.49595069885254 52.18778991699219 23.49595069885254 C 48.33339691162109 23.49595069885254 44.56572723388672 24.02877044677734 40.92074966430664 24.54465103149414 C 37.24332809448242 25.06557083129883 33.44675064086914 25.60200119018555 29.53041839599609 25.60200119018555 C 26.57207870483398 25.60200119018555 23.82610702514648 25.2984619140625 21.1349983215332 24.67515182495117 L 21.1349983215332 7.91832160949707 C 21.1349983215332 7.91832160949707 21.58155059814453 8.000871658325195 21.94256973266602 8.077301025390625 C 24.37529754638672 8.596420288085938 26.85758972167969 8.848411560058594 29.53041839599609 8.848411560058594 C 33.38599014282227 8.848411560058594 37.15070724487305 8.315591812133789 40.79155731201172 7.799711227416992 C 44.46543884277344 7.279510498046875 48.26556015014648 6.742000579833984 52.18660736083984 6.742000579833984 Z" stroke="none" fill="#fff"/>
      </g>
    </g>
  </g>
</svg>
