<svg xmlns="http://www.w3.org/2000/svg" width="25.989" height="34.652" viewBox="0 0 25.989 34.652">
  <path id="Icon_awesome-file-pdf" data-name="Icon awesome-file-pdf" d="M12.311,17.333c-.338-1.083-.332-3.174-.135-3.174C12.744,14.159,12.69,16.656,12.311,17.333ZM12.2,20.527a31.23,31.23,0,0,1-1.922,4.244,24.921,24.921,0,0,1,4.257-1.482A8.767,8.767,0,0,1,12.2,20.527ZM5.827,28.974c0,.054.893-.365,2.362-2.721A9.355,9.355,0,0,0,5.827,28.974ZM16.785,10.829h9.2v22.2a1.62,1.62,0,0,1-1.624,1.624H1.624A1.62,1.62,0,0,1,0,33.028V1.624A1.62,1.62,0,0,1,1.624,0H15.16V9.2A1.629,1.629,0,0,0,16.785,10.829Zm-.541,11.627a6.793,6.793,0,0,1-2.89-3.641c.3-1.252.785-3.154.42-4.345a1.7,1.7,0,0,0-3.235-.46c-.338,1.239-.027,2.985.548,5.211a63.554,63.554,0,0,1-2.761,5.807c-.007,0-.007.007-.014.007-1.834.941-4.981,3.012-3.689,4.6a2.1,2.1,0,0,0,1.455.677c1.211,0,2.416-1.218,4.135-4.183a38.579,38.579,0,0,1,5.347-1.57,10.257,10.257,0,0,0,4.332,1.32,1.752,1.752,0,0,0,1.333-2.937c-.941-.92-3.675-.656-4.981-.487Zm9.272-15.35L18.883.474A1.623,1.623,0,0,0,17.732,0h-.406V8.663h8.663V8.25A1.619,1.619,0,0,0,25.515,7.106ZM20.5,24.385c.277-.183-.169-.805-2.9-.609C20.115,24.845,20.5,24.385,20.5,24.385Z" fill="#bec4cf"/>
</svg>
