<svg xmlns="http://www.w3.org/2000/svg" width="60.463" height="65.98" viewBox="0 0 60.463 65.98">
  <g id="craft-tree-of-lines-and-circles" transform="translate(4.834 11.614)">
    <g id="Group_3359" data-name="Group 3359" transform="translate(-4.584 -11.364)">
      <path id="Path_4412" data-name="Path 4412" d="M31.345,19.676c-.259-.746-.552-1.434-.851-2.122C33.4,15,37.3,13.757,42.206,13.914a1.019,1.019,0,0,0,.061-2.037c-5.231-.155-9.453,1.143-12.688,3.8-2.858-5.373-7.131-8.635-12.8-9.637a1.019,1.019,0,0,0-.354,2.006c5.166.915,9.048,3.984,11.615,9.081a17.161,17.161,0,0,0-2.086,2.693,22.643,22.643,0,0,0-2.518,6.162,12.617,12.617,0,0,0-3-2.976c-3.63-2.483-8.246-2.361-13.7.354a1.019,1.019,0,0,0,.906,1.825c4.752-2.369,8.667-2.532,11.649-.5a11.935,11.935,0,0,1,3.536,4.161c-1.874,11.262,1.434,24.991,4.145,30.059,0,0,0,0,0,0a.25.25,0,0,0,.022.047c.012.022.039.033.051.051a.906.906,0,0,0,.124.163c.018.02.026.043.043.057a.884.884,0,0,0,.11.067.056.056,0,0,1,.016.012c.022.014.037.035.055.045s.053.022.084.035a.882.882,0,0,0,.216.065,1.085,1.085,0,0,0,.108.033c.035,0,.059,0,.092,0h0a.992.992,0,0,0,.389-.081.244.244,0,0,0,.051-.033c.012-.006.029,0,.041-.008.033-.018.047-.047.079-.067a1.338,1.338,0,0,0,.161-.122c.008-.012.024-.016.037-.029a.16.16,0,0,1,.024-.031c.012-.014.02-.031.033-.045C32.017,55.206,36.374,34.255,31.345,19.676Zm-3.654,1.21a16.075,16.075,0,0,1,1.249-1.744c.159.4.334.778.477,1.2C33.1,31,31.357,45.6,29.133,53.159c.084-6.532-.426-17.53-4.2-24.777A22.618,22.618,0,0,1,27.691,20.886Zm-3.306,11.5c2.334,6.63,2.825,15.442,2.711,21.459A58.37,58.37,0,0,1,24.385,32.389Z" transform="translate(3.509 6.242)" fill="#fff"/>
      <path id="Path_4413" data-name="Path 4413" d="M26.282,13.813a2.93,2.93,0,1,0-2.931,2.929A2.935,2.935,0,0,0,26.282,13.813Zm-2.929,1.909a1.911,1.911,0,1,1,1.911-1.911A1.911,1.911,0,0,1,23.353,15.722Z" transform="translate(18.292 11.286)" fill="#fff" stroke="#fff" stroke-linecap="square" stroke-linejoin="round" stroke-width="0.5"/>
      <path id="Path_4414" data-name="Path 4414" d="M30.593,14.288a2.929,2.929,0,1,0-2.929,2.929A2.934,2.934,0,0,0,30.593,14.288Zm-4.838,0A1.912,1.912,0,1,1,27.668,16.2,1.915,1.915,0,0,1,25.756,14.288Z" transform="translate(22.764 11.779)" fill="#fff" stroke="#fff" stroke-linecap="square" stroke-linejoin="round" stroke-width="0.5"/>
      <path id="Path_4415" data-name="Path 4415" d="M30.907,8.415a2.929,2.929,0,1,0,2.929,2.929A2.932,2.932,0,0,0,30.907,8.415Zm0,4.838a1.911,1.911,0,1,1,1.911-1.911A1.911,1.911,0,0,1,30.907,13.253Z" transform="translate(26.127 8.726)" fill="#fff" stroke="#fff" stroke-linecap="square" stroke-linejoin="round" stroke-width="0.5"/>
      <path id="Path_4416" data-name="Path 4416" d="M24.541,10.94A2.929,2.929,0,1,0,21.61,8.011,2.934,2.934,0,0,0,24.541,10.94Zm0-4.838a1.911,1.911,0,1,1-1.913,1.911A1.913,1.913,0,0,1,24.541,6.1Z" transform="translate(19.524 5.27)" fill="#fff" stroke="#fff" stroke-linecap="square" stroke-linejoin="round" stroke-width="0.5"/>
      <path id="Path_4417" data-name="Path 4417" d="M18.322,8.952a2.929,2.929,0,1,0-2.929-2.929A2.935,2.935,0,0,0,18.322,8.952Zm0-4.838a1.911,1.911,0,1,1-1.911,1.911A1.914,1.914,0,0,1,18.322,4.115Z" transform="translate(13.077 3.208)" fill="#fff" stroke="#fff" stroke-linecap="square" stroke-linejoin="round" stroke-width="0.5"/>
      <path id="Path_4418" data-name="Path 4418" d="M13.969,5.858A2.929,2.929,0,1,0,11.04,2.929,2.934,2.934,0,0,0,13.969,5.858Zm0-4.838a1.911,1.911,0,1,1-1.911,1.911A1.912,1.912,0,0,1,13.969,1.021Z" transform="translate(8.563)" fill="#fff" stroke="#fff" stroke-linecap="square" stroke-linejoin="round" stroke-width="0.5"/>
      <path id="Path_4419" data-name="Path 4419" d="M10.455,8.565A2.929,2.929,0,1,0,7.526,5.636,2.934,2.934,0,0,0,10.455,8.565Zm0-4.838A1.911,1.911,0,1,1,8.544,5.638,1.912,1.912,0,0,1,10.455,3.728Z" transform="translate(4.92 2.807)" fill="#fff" stroke="#fff" stroke-linecap="square" stroke-linejoin="round" stroke-width="0.5"/>
      <path id="Path_4420" data-name="Path 4420" d="M7.4,12.128A2.929,2.929,0,1,0,4.471,9.2,2.932,2.932,0,0,0,7.4,12.128Zm0-4.838A1.911,1.911,0,1,1,5.489,9.2,1.912,1.912,0,0,1,7.4,7.291Z" transform="translate(1.752 6.502)" fill="#fff" stroke="#fff" stroke-linecap="square" stroke-linejoin="round" stroke-width="0.5"/>
      <path id="Path_4421" data-name="Path 4421" d="M8.588,16.2a2.929,2.929,0,1,0,2.929,2.929A2.934,2.934,0,0,0,8.588,16.2Zm0,4.838A1.911,1.911,0,1,1,10.5,19.132,1.912,1.912,0,0,1,8.588,21.043Z" transform="translate(2.984 16.804)" fill="#fff" stroke="#fff" stroke-linecap="square" stroke-linejoin="round" stroke-width="0.5"/>
      <path id="Path_4422" data-name="Path 4422" d="M12.109,7.458a2.929,2.929,0,1,0,2.929,2.929A2.932,2.932,0,0,0,12.109,7.458Zm0,4.838a1.911,1.911,0,1,1,1.911-1.911A1.912,1.912,0,0,1,12.109,12.3Z" transform="translate(6.635 7.733)" fill="#fff" stroke="#fff" stroke-linecap="square" stroke-linejoin="round" stroke-width="0.5"/>
      <path id="Path_4423" data-name="Path 4423" d="M5.388,11.359a2.929,2.929,0,1,0,2.929,2.929A2.932,2.932,0,0,0,5.388,11.359Zm0,4.838A1.911,1.911,0,1,1,7.3,14.286,1.912,1.912,0,0,1,5.388,16.2Z" transform="translate(-0.334 11.779)" fill="#fff" stroke="#fff" stroke-linecap="square" stroke-linejoin="round" stroke-width="0.5"/>
      <path id="Path_4424" data-name="Path 4424" d="M12,5.786a2.46,2.46,0,1,0,2.459-2.461A2.46,2.46,0,0,0,12,5.786Zm3.9,0a1.441,1.441,0,1,1-1.442-1.442A1.442,1.442,0,0,1,15.9,5.786Z" transform="translate(9.557 3.448)" fill="#fff" stroke="#fff" stroke-linecap="square" stroke-linejoin="round" stroke-width="0.5"/>
      <path id="Path_4425" data-name="Path 4425" d="M11.271,13.251A2.46,2.46,0,1,0,13.73,10.79,2.46,2.46,0,0,0,11.271,13.251Zm2.459-1.442a1.441,1.441,0,1,1-1.44,1.442A1.442,1.442,0,0,1,13.73,11.808Z" transform="translate(8.803 11.189)" fill="#fff" stroke="#fff" stroke-linecap="square" stroke-linejoin="round" stroke-width="0.5"/>
      <path id="Path_4426" data-name="Path 4426" d="M11.2,15.442a2.066,2.066,0,1,0,2.07,2.067A2.069,2.069,0,0,0,11.2,15.442Zm0,3.112a1.048,1.048,0,1,1,1.051-1.049A1.047,1.047,0,0,1,11.2,18.554Z" transform="translate(6.59 16.012)" fill="#fff" stroke="#fff" stroke-linecap="square" stroke-linejoin="round" stroke-width="0.5"/>
      <path id="Path_4427" data-name="Path 4427" d="M5.551,8.99a2.067,2.067,0,1,0-2.07,2.065A2.071,2.071,0,0,0,5.551,8.99Zm-3.117,0a1.049,1.049,0,1,1,1.047,1.047A1.048,1.048,0,0,1,2.434,8.99Z" transform="translate(-1.416 7.179)" fill="#fff" stroke="#fff" stroke-linecap="square" stroke-linejoin="round" stroke-width="0.5"/>
      <path id="Path_4428" data-name="Path 4428" d="M24.922,13.95A2.066,2.066,0,1,0,27,16.017,2.069,2.069,0,0,0,24.922,13.95Zm0,3.114a1.048,1.048,0,1,1,1.055-1.047A1.051,1.051,0,0,1,24.922,17.064Z" transform="translate(20.817 14.465)" fill="#fff" stroke="#fff" stroke-linecap="square" stroke-linejoin="round" stroke-width="0.5"/>
      <path id="Path_4429" data-name="Path 4429" d="M30.465,11.941a2.066,2.066,0,1,0,2.074,2.067A2.069,2.069,0,0,0,30.465,11.941Zm0,3.112a1.048,1.048,0,1,1,1.055-1.047A1.051,1.051,0,0,1,30.465,15.053Z" transform="translate(26.565 12.382)" fill="#fff" stroke="#fff" stroke-linecap="square" stroke-linejoin="round" stroke-width="0.5"/>
      <path id="Path_4430" data-name="Path 4430" d="M9.029,10.79a2.46,2.46,0,1,0,2.461,2.461A2.462,2.462,0,0,0,9.029,10.79Zm0,3.9a1.441,1.441,0,1,1,1.442-1.44A1.441,1.441,0,0,1,9.029,14.691Z" transform="translate(3.928 11.189)" fill="#fff" stroke="#fff" stroke-linecap="square" stroke-linejoin="round" stroke-width="0.5"/>
      <path id="Path_4431" data-name="Path 4431" d="M4.64,15.479A2.46,2.46,0,1,0,7.1,17.94,2.462,2.462,0,0,0,4.64,15.479Zm0,3.9a1.441,1.441,0,1,1,1.442-1.44A1.44,1.44,0,0,1,4.64,19.378Z" transform="translate(-0.623 16.051)" fill="#fff" stroke="#fff" stroke-linecap="square" stroke-linejoin="round" stroke-width="0.5"/>
      <path id="Path_4432" data-name="Path 4432" d="M27.619,12.607a2.46,2.46,0,1,0-2.459-2.459A2.461,2.461,0,0,0,27.619,12.607Zm0-3.9a1.441,1.441,0,1,1-1.44,1.442A1.44,1.44,0,0,1,27.619,8.706Z" transform="translate(23.205 7.972)" fill="#fff" stroke="#fff" stroke-linecap="square" stroke-linejoin="round" stroke-width="0.5"/>
      <path id="Path_4433" data-name="Path 4433" d="M28.576,14.521a2.46,2.46,0,1,0,2.463,2.461A2.462,2.462,0,0,0,28.576,14.521Zm0,3.9a1.441,1.441,0,1,1,1.444-1.44A1.441,1.441,0,0,1,28.576,18.422Z" transform="translate(24.197 15.057)" fill="#fff" stroke="#fff" stroke-linecap="square" stroke-linejoin="round" stroke-width="0.5"/>
      <path id="Path_4434" data-name="Path 4434" d="M20.967,10.462A2.46,2.46,0,1,0,18.508,8,2.465,2.465,0,0,0,20.967,10.462Zm0-3.9a1.441,1.441,0,1,1-1.44,1.442A1.444,1.444,0,0,1,20.967,6.564Z" transform="translate(16.307 5.748)" fill="#fff" stroke="#fff" stroke-linecap="square" stroke-linejoin="round" stroke-width="0.5"/>
      <path id="Path_4435" data-name="Path 4435" d="M21.344,6.337a2.46,2.46,0,1,0-2.459-2.459A2.465,2.465,0,0,0,21.344,6.337Zm0-3.9A1.441,1.441,0,1,1,19.9,3.881,1.444,1.444,0,0,1,21.344,2.439Z" transform="translate(16.698 1.47)" fill="#fff" stroke="#fff" stroke-linecap="square" stroke-linejoin="round" stroke-width="0.5"/>
      <path id="Path_4436" data-name="Path 4436" d="M25.483,6.19a2.929,2.929,0,1,0-2.929-2.929A2.935,2.935,0,0,0,25.483,6.19Zm0-4.838a1.911,1.911,0,1,1-1.911,1.911A1.913,1.913,0,0,1,25.483,1.353Z" transform="translate(20.503 0.344)" fill="#fff" stroke="#fff" stroke-linecap="square" stroke-linejoin="round" stroke-width="0.5"/>
      <path id="Path_4437" data-name="Path 4437" d="M28.852,9.753a2.929,2.929,0,1,0-2.929-2.929A2.934,2.934,0,0,0,28.852,9.753Zm0-4.838a1.911,1.911,0,1,1-1.911,1.911A1.912,1.912,0,0,1,28.852,4.916Z" transform="translate(23.996 4.039)" fill="#fff" stroke="#fff" stroke-linecap="square" stroke-linejoin="round" stroke-width="0.5"/>
    </g>
  </g>
</svg>
