<svg xmlns="http://www.w3.org/2000/svg" width="74.783" height="61.771" viewBox="0 0 74.783 61.771">
  <g id="cultures" transform="translate(0.999 1)">
    <path id="Path_4474" data-name="Path 4474" d="M306.967,34.58l1.723-2.589c2.895-.752,11.2-3.432,15.79-10.337.292-.438.575-.906.841-1.39l.515-.937-1.456-3.2,3.132-1.647.192-1.01a32.345,32.345,0,0,0,.036-11.4L327.315,0l-2.073.406c-.459.09-11.3,2.3-16.805,10.574-4.724,7.1-3.812,16.1-3.4,18.8l-3.95,5.938a15.177,15.177,0,0,1,5.878-1.136Zm0,0" transform="translate(-258.288)" fill="#fff" stroke="#fff" stroke-linejoin="round" stroke-width="2"/>
    <path id="Path_4475" data-name="Path 4475" d="M72.774,282.934a20.067,20.067,0,0,1-3.075-.4,39.17,39.17,0,0,1-14.2-6.626c-8.449-5.894-15.211.607-16.975,2.59v6.926a19.533,19.533,0,0,1,3.585-2.138,15.412,15.412,0,0,1,6.38-1.428,16.318,16.318,0,0,1,9.45,3.211,39.942,39.942,0,0,0,9.484,5.052H57.846q-1.164-.73-2.347-1.554c-3.849-2.686-7.76-3.157-11.624-1.4a16.393,16.393,0,0,0-4.323,2.954H33.232a16.4,16.4,0,0,0-4.323-2.954c-3.864-1.757-7.775-1.287-11.624,1.4q-1.183.825-2.347,1.554H5.361a39.951,39.951,0,0,0,9.484-5.052c6.442-4.494,12.164-3.451,15.83-1.783a19.553,19.553,0,0,1,3.585,2.138V278.5c-1.757-1.976-8.521-8.488-16.975-2.59a39.164,39.164,0,0,1-14.2,6.626,20.072,20.072,0,0,1-3.075.4L0,294.388H72.783Zm0,0" transform="translate(0 -234.617)" fill="none" stroke="#fff" stroke-linejoin="round" stroke-width="2"/>
  </g>
</svg>
