<svg xmlns="http://www.w3.org/2000/svg" width="52" height="60" viewBox="0 0 52 60">
  <g id="language" transform="translate(-6 -2)">
    <path id="Path_4409" data-name="Path 4409" d="M55,6H36V5a3,3,0,0,0-3-3H31a3,3,0,0,0-3,3V6H9A3,3,0,0,0,6,9V35a3,3,0,0,0,3,3h2v1a3,3,0,0,0,3,3h9.92L9.22,60.38A1.016,1.016,0,0,0,10,62h6a1,1,0,0,0,.78-.38L28,47.6V55a3,3,0,0,0,3,3h2a3,3,0,0,0,3-3V47.6l11.22,14A1,1,0,0,0,48,62h6a.971.971,0,0,0,.78-1.57L40.08,42H50a3,3,0,0,0,3-3V38h2a3,3,0,0,0,3-3V9A3,3,0,0,0,55,6ZM15.52,60H12.08l14.4-18h3.44Zm36.4,0H48.48L34.08,42h3.44ZM56,35a1,1,0,0,1-1,1H9a1,1,0,0,1-1-1V9A1,1,0,0,1,9,8H55a1,1,0,0,1,1,1Z" fill="#fff"/>
    <path id="Path_4410" data-name="Path 4410" d="M32.92,28.61l-6-14a1,1,0,0,0-1.84,0l-6,14a1,1,0,0,0,1.84.78L23.23,24h5.54l2.31,5.39a1,1,0,0,0,1.84-.78ZM24.09,22,26,17.54,27.91,22Z" fill="#fff"/>
    <path id="Path_4411" data-name="Path 4411" d="M44,20a1,1,0,0,0-1,1h0a4.92,4.92,0,0,0-3-1,5,5,0,1,0,0,10,4.92,4.92,0,0,0,3-1h0a1,1,0,0,0,2,0V21A1,1,0,0,0,44,20Zm-4,8a3,3,0,1,1,3-3,3,3,0,0,1-3,3Z" fill="#fff"/>
  </g>
</svg>
