<svg xmlns="http://www.w3.org/2000/svg" width="93" height="62" viewBox="0 0 93 62">
  <g id="Group_6082" data-name="Group 6082" transform="translate(-24 -274)">
    <g id="Rectangle_6663" data-name="Rectangle 6663" transform="translate(24 274)" fill="#fff" stroke="#bec4cf" stroke-linecap="square" stroke-linejoin="bevel" stroke-width="0.5" stroke-dasharray="4">
      <rect width="93" height="62" stroke="none"/>
      <rect x="0.25" y="0.25" width="92.5" height="61.5" fill="none"/>
    </g>
    <g id="Group_6081" data-name="Group 6081" transform="translate(60.503 287.355)">
      <path id="Icon_awesome-image" data-name="Icon awesome-image" d="M17.344,20.228H1.794A1.886,1.886,0,0,1,0,18.262V6.466A1.886,1.886,0,0,1,1.794,4.5h15.55a1.886,1.886,0,0,1,1.794,1.966v11.8A1.886,1.886,0,0,1,17.344,20.228ZM4.186,6.794A2.2,2.2,0,0,0,2.093,9.087a2.2,2.2,0,0,0,2.093,2.294A2.2,2.2,0,0,0,6.28,9.087,2.2,2.2,0,0,0,4.186,6.794ZM2.392,17.607H16.746V13.019L13.474,9.435a.421.421,0,0,0-.634,0l-5.065,5.55L5.7,12.712a.421.421,0,0,0-.634,0L2.392,15.641Z" transform="translate(0 -2.676)" fill="#abadae"/>
      <g id="Icon_material-add" data-name="Icon material-add" transform="translate(8.912 -7.5)" fill="#abadae" stroke-linecap="square">
        <path d="M 10.7017183303833 12.72799873352051 L 10.2017183303833 12.72799873352051 L 9.526288032531738 12.72799873352051 L 9.026288032531738 12.72799873352051 L 9.026288032531738 12.22799873352051 L 9.026288032531738 10.7017183303833 L 7.499998569488525 10.7017183303833 L 6.999998569488525 10.7017183303833 L 6.999998569488525 10.2017183303833 L 6.999998569488525 9.526288032531738 L 6.999998569488525 9.026288032531738 L 7.499998569488525 9.026288032531738 L 9.026288032531738 9.026288032531738 L 9.026288032531738 7.499998569488525 L 9.026288032531738 6.999998569488525 L 9.526288032531738 6.999998569488525 L 10.2017183303833 6.999998569488525 L 10.7017183303833 6.999998569488525 L 10.7017183303833 7.499998569488525 L 10.7017183303833 9.026288032531738 L 12.22799873352051 9.026288032531738 L 12.72799873352051 9.026288032531738 L 12.72799873352051 9.526288032531738 L 12.72799873352051 10.2017183303833 L 12.72799873352051 10.7017183303833 L 12.22799873352051 10.7017183303833 L 10.7017183303833 10.7017183303833 L 10.7017183303833 12.22799873352051 L 10.7017183303833 12.72799873352051 Z" stroke="none"/>
        <path d="M 10.2017183303833 12.22799873352051 L 10.2017183303833 10.2017183303833 L 12.22799873352051 10.2017183303833 L 12.22799873352051 9.526288032531738 L 10.2017183303833 9.526288032531738 L 10.2017183303833 7.499998569488525 L 9.526288032531738 7.499998569488525 L 9.526288032531738 9.526288032531738 L 7.499998569488525 9.526288032531738 L 7.499998569488525 10.2017183303833 L 9.526288032531738 10.2017183303833 L 9.526288032531738 12.22799873352051 L 10.2017183303833 12.22799873352051 M 11.2017183303833 13.22799873352051 L 10.2017183303833 13.22799873352051 L 9.526288032531738 13.22799873352051 L 8.526288032531738 13.22799873352051 L 8.526288032531738 12.22799873352051 L 8.526288032531738 11.2017183303833 L 7.499998569488525 11.2017183303833 L 6.499998569488525 11.2017183303833 L 6.499998569488525 10.2017183303833 L 6.499998569488525 9.526288032531738 L 6.499998569488525 8.526288032531738 L 7.499998569488525 8.526288032531738 L 8.526288032531738 8.526288032531738 L 8.526288032531738 7.499998569488525 L 8.526288032531738 6.499998569488525 L 9.526288032531738 6.499998569488525 L 10.2017183303833 6.499998569488525 L 11.2017183303833 6.499998569488525 L 11.2017183303833 7.499998569488525 L 11.2017183303833 8.526288032531738 L 12.22799873352051 8.526288032531738 L 13.22799873352051 8.526288032531738 L 13.22799873352051 9.526288032531738 L 13.22799873352051 10.2017183303833 L 13.22799873352051 11.2017183303833 L 12.22799873352051 11.2017183303833 L 11.2017183303833 11.2017183303833 L 11.2017183303833 12.22799873352051 L 11.2017183303833 13.22799873352051 Z" stroke="none" fill="#fff"/>
      </g>
      <g id="Icon_material-add-2" data-name="Icon material-add" transform="translate(8.912 -7.5)" fill="#abadae" stroke-linecap="square">
        <path d="M 10.35171794891357 12.37799835205078 L 10.2017183303833 12.37799835205078 L 9.526288032531738 12.37799835205078 L 9.376288414001465 12.37799835205078 L 9.376288414001465 12.22799873352051 L 9.376288414001465 10.35171794891357 L 7.499998569488525 10.35171794891357 L 7.349998474121094 10.35171794891357 L 7.349998474121094 10.2017183303833 L 7.349998474121094 9.526288032531738 L 7.349998474121094 9.376288414001465 L 7.499998569488525 9.376288414001465 L 9.376288414001465 9.376288414001465 L 9.376288414001465 7.499998569488525 L 9.376288414001465 7.349998474121094 L 9.526288032531738 7.349998474121094 L 10.2017183303833 7.349998474121094 L 10.35171794891357 7.349998474121094 L 10.35171794891357 7.499998569488525 L 10.35171794891357 9.376288414001465 L 12.22799873352051 9.376288414001465 L 12.37799835205078 9.376288414001465 L 12.37799835205078 9.526288032531738 L 12.37799835205078 10.2017183303833 L 12.37799835205078 10.35171794891357 L 12.22799873352051 10.35171794891357 L 10.35171794891357 10.35171794891357 L 10.35171794891357 12.22799873352051 L 10.35171794891357 12.37799835205078 Z" stroke="none"/>
        <path d="M 10.2017183303833 12.22799873352051 L 10.2017183303833 10.2017183303833 L 12.22799873352051 10.2017183303833 L 12.22799873352051 9.526288032531738 L 10.2017183303833 9.526288032531738 L 10.2017183303833 7.499998569488525 L 9.526288032531738 7.499998569488525 L 9.526288032531738 9.526288032531738 L 7.499998569488525 9.526288032531738 L 7.499998569488525 10.2017183303833 L 9.526288032531738 10.2017183303833 L 9.526288032531738 12.22799873352051 L 10.2017183303833 12.22799873352051 M 10.50171852111816 12.52799797058105 L 10.2017183303833 12.52799797058105 L 9.526288032531738 12.52799797058105 L 9.226288795471191 12.52799797058105 L 9.226288795471191 12.22799873352051 L 9.226288795471191 10.50171852111816 L 7.499998569488525 10.50171852111816 L 7.199998378753662 10.50171852111816 L 7.199998378753662 10.2017183303833 L 7.199998378753662 9.526288032531738 L 7.199998378753662 9.226288795471191 L 7.499998569488525 9.226288795471191 L 9.226288795471191 9.226288795471191 L 9.226288795471191 7.499998569488525 L 9.226288795471191 7.199998378753662 L 9.526288032531738 7.199998378753662 L 10.2017183303833 7.199998378753662 L 10.50171852111816 7.199998378753662 L 10.50171852111816 7.499998569488525 L 10.50171852111816 9.226288795471191 L 12.22799873352051 9.226288795471191 L 12.52799797058105 9.226288795471191 L 12.52799797058105 9.526288032531738 L 12.52799797058105 10.2017183303833 L 12.52799797058105 10.50171852111816 L 12.22799873352051 10.50171852111816 L 10.50171852111816 10.50171852111816 L 10.50171852111816 12.22799873352051 L 10.50171852111816 12.52799797058105 Z" stroke="none" fill="#abadae"/>
      </g>
    </g>
    <text id="upload_thumbnail" data-name="upload thumbnail" transform="translate(34 319)" fill="#abadae" font-size="7" font-family="Montserrat-Medium, Montserrat" font-weight="500" letter-spacing="0.003em"><tspan x="0" y="0">upload thumbnail</tspan></text>
  </g>
</svg>
