<svg xmlns="http://www.w3.org/2000/svg" width="62.175" height="58.238" viewBox="0 0 62.175 58.238">
  <g id="Layer_25" data-name="Layer 25" transform="translate(-0.555 -1.5)">
    <path id="Path_4439" data-name="Path 4439" d="M39.663,42.884a2.044,2.044,0,0,1-1.308-.47l-9.24-7.707H25.354A16.354,16.354,0,0,1,25.354,2H37.619a16.354,16.354,0,0,1,4.088,32.176V40.84a2.03,2.03,0,0,1-2.044,2.044ZM25.354,6.088a12.265,12.265,0,0,0,0,24.531h4.5a2.044,2.044,0,0,1,1.308.47l6.46,5.376V32.5a2.044,2.044,0,0,1,1.758-2.044A12.265,12.265,0,0,0,37.619,6.088Z" transform="translate(8.292 0)" fill="#fff" stroke="#f53e8b" stroke-width="1"/>
    <rect id="Rectangle_4696" data-name="Rectangle 4696" width="4.088" height="4.088" transform="translate(37.734 16.309)" fill="#fff" stroke="#f53e8b" stroke-width="1"/>
    <rect id="Rectangle_4697" data-name="Rectangle 4697" width="4.088" height="4.088" transform="translate(27.513 16.309)" fill="#fff" stroke="#f53e8b" stroke-width="1"/>
    <rect id="Rectangle_4698" data-name="Rectangle 4698" width="4.088" height="4.088" transform="translate(47.955 16.309)" fill="#fff" stroke="#f53e8b" stroke-width="1"/>
    <path id="Path_4440" data-name="Path 4440" d="M15.248,50.232A2.03,2.03,0,0,1,13.2,48.188V41.524A16.354,16.354,0,0,1,10.587,10.86a2.044,2.044,0,1,1,1.676,3.72,12.265,12.265,0,0,0,3.271,23.3,2.044,2.044,0,0,1,1.758,2.044v3.966l6.46-5.376a2.044,2.044,0,0,1,1.308-.552h4.5a12.143,12.143,0,0,0,8.77-3.72,2.053,2.053,0,0,1,2.944,2.862,16.354,16.354,0,0,1-11.713,4.947H25.8l-9.24,7.707A2.044,2.044,0,0,1,15.248,50.232Z" transform="translate(0 9.006)" fill="#fff" stroke="#f53e8b" stroke-width="1"/>
  </g>
</svg>
