<svg xmlns="http://www.w3.org/2000/svg" width="51.208" height="56.15" viewBox="0 0 51.208 56.15">
  <g id="iconfinder_General_Office_20_2530826" transform="translate(-4.101 -0.164)">
    <g id="Group_3367" data-name="Group 3367" transform="translate(4.101 0.164)">
      <g id="Group_3366" data-name="Group 3366">
        <g id="Group_3364" data-name="Group 3364" transform="translate(0 11.57)">
          <path id="Path_4462" data-name="Path 4462" d="M48.588,63.281H5.67A1.568,1.568,0,0,1,4.1,61.712V20.27A1.568,1.568,0,0,1,5.67,18.7H53.741a1.568,1.568,0,0,1,1.569,1.569v36.29A6.729,6.729,0,0,1,48.588,63.281ZM7.238,60.144h41.35a3.588,3.588,0,0,0,3.584-3.585V21.838H7.238Z" transform="translate(-4.101 -18.701)" fill="#fff"/>
        </g>
        <path id="Path_4463" data-name="Path 4463" d="M30.726,41.615H20.7a1.569,1.569,0,1,1,0-3.137H30.726a1.569,1.569,0,1,1,0,3.137Z" transform="translate(-9.75 -14.563)" fill="#fff"/>
        <path id="Path_4464" data-name="Path 4464" d="M28.728,43.612a1.569,1.569,0,0,1-1.569-1.569V32.018a1.569,1.569,0,1,1,3.137,0V42.043A1.568,1.568,0,0,1,28.728,43.612Z" transform="translate(-12.767 -11.546)" fill="#fff"/>
        <path id="Path_4465" data-name="Path 4465" d="M30.433,71.347a1.562,1.562,0,0,1-1.109-.459l-8.566-8.57A1.569,1.569,0,0,1,22.977,60.1l8.566,8.57a1.568,1.568,0,0,1-1.11,2.677Z" transform="translate(-10.189 -22.516)" fill="#fff"/>
        <path id="Path_4466" data-name="Path 4466" d="M21.868,71.346a1.568,1.568,0,0,1-1.109-2.677L29.326,60.1a1.568,1.568,0,0,1,2.218,2.218l-8.567,8.568A1.561,1.561,0,0,1,21.868,71.346Z" transform="translate(-10.189 -22.517)" fill="#fff"/>
        <path id="Path_4467" data-name="Path 4467" d="M62.272,41.615H52.244a1.569,1.569,0,1,1,0-3.137H62.272a1.569,1.569,0,0,1,0,3.137Z" transform="translate(-21.604 -14.563)" fill="#fff"/>
        <path id="Path_4468" data-name="Path 4468" d="M62.272,69.64H52.244a1.569,1.569,0,1,1,0-3.137H62.272a1.569,1.569,0,0,1,0,3.137Z" transform="translate(-21.604 -25.095)" fill="#fff"/>
        <path id="Path_4469" data-name="Path 4469" d="M60.5,62.441H59.4a1.569,1.569,0,1,1,0-3.137h1.1a1.569,1.569,0,0,1,0,3.137Z" transform="translate(-24.294 -22.39)" fill="#fff"/>
        <path id="Path_4470" data-name="Path 4470" d="M60.5,76.82H59.4a1.569,1.569,0,1,1,0-3.137h1.1a1.569,1.569,0,0,1,0,3.137Z" transform="translate(-24.294 -27.794)" fill="#fff"/>
        <g id="Group_3365" data-name="Group 3365">
          <path id="Path_4471" data-name="Path 4471" d="M53.741,14.87H5.67A1.568,1.568,0,0,1,4.1,13.3V1.732A1.568,1.568,0,0,1,5.67.164H53.741a1.568,1.568,0,0,1,1.569,1.568V13.3A1.568,1.568,0,0,1,53.741,14.87Zm-46.5-3.137H52.172V3.3H7.238Z" transform="translate(-4.101 -0.164)" fill="#fff"/>
        </g>
      </g>
    </g>
  </g>
</svg>
