<svg id="natural-park" xmlns="http://www.w3.org/2000/svg" width="58.955" height="58.955" viewBox="0 0 58.955 58.955">
  <g id="Group_3362" data-name="Group 3362" transform="translate(1.151 1.151)">
    <path id="Path_4453" data-name="Path 4453" d="M196,328.909V322S199.044,328.909,196,328.909Z" transform="translate(-174.583 -286.075)" fill="#fff"/>
  </g>
  <g id="Group_3363" data-name="Group 3363" transform="translate(0 0)">
    <path id="Path_4457" data-name="Path 4457" d="M57.8,35.925H22.569a1.152,1.152,0,0,0-1.151,1.151v6.909a1.152,1.152,0,0,0,1.151,1.151h2.3v4.606h-2.3a1.151,1.151,0,0,0,0,2.3h2.3v4.606H12.666V33.346c7.116-.568,10.363-6.087,10.363-13.2,0-7.6-4.177-20.15-11.515-20.15C4.219,0,0,12.463,0,20.15c0,7.112,3.25,12.628,10.363,13.2V56.652H1.151a1.151,1.151,0,1,0,0,2.3H57.8a1.151,1.151,0,0,0,0-2.3H55.5V52.046h2.3a1.151,1.151,0,0,0,0-2.3H55.5V45.137h2.3a1.152,1.152,0,0,0,1.151-1.151V37.077A1.152,1.152,0,0,0,57.8,35.925ZM2.3,20.15c0-6,3.451-17.848,9.212-17.848,5.743,0,9.212,11.8,9.212,17.848,0,6.584-2.851,10.405-8.06,10.886V22.355l3.117-3.117a1.152,1.152,0,0,0-1.629-1.629l-2.64,2.64-2.64-2.64a1.152,1.152,0,0,0-1.629,1.629l3.117,3.117v8.682C5.154,30.556,2.3,26.734,2.3,20.15ZM53.2,49.743h-7.83a1.151,1.151,0,1,0,0,2.3H53.2v4.606H27.174V52.046H35a1.151,1.151,0,0,0,0-2.3h-7.83V45.137H53.2Zm3.454-6.909H23.72V38.228H56.652Z" transform="translate(0 0)" fill="#fff"/>
    <path id="Path_4458" data-name="Path 4458" d="M436.606,0a4.606,4.606,0,1,0,4.606,4.606A4.611,4.611,0,0,0,436.606,0Zm0,6.909a2.3,2.3,0,1,1,2.3-2.3A2.306,2.306,0,0,1,436.606,6.909Z" transform="translate(-382.257 0)" fill="#fff"/>
    <path id="Path_4459" data-name="Path 4459" d="M356.969,123.454H354.52a4.606,4.606,0,0,0-8.949.117,4.606,4.606,0,0,0,1.034,9.095h10.363a4.606,4.606,0,1,0,0-9.212Zm0,6.909H346.606a2.3,2.3,0,0,1,0-4.606,1.151,1.151,0,0,0,1.151-1.151,2.3,2.3,0,0,1,4.606,0,1.151,1.151,0,0,0,1.151,1.151h3.454a2.3,2.3,0,1,1,0,4.606Z" transform="translate(-302.62 -106.183)" fill="#fff"/>
    <path id="Path_4460" data-name="Path 4460" d="M236.969,12.666A4.606,4.606,0,0,0,238,3.571a4.606,4.606,0,0,0-8.949-.117h-2.449a4.606,4.606,0,0,0,0,9.212ZM224.3,8.06a2.306,2.306,0,0,1,2.3-2.3h3.454a1.152,1.152,0,0,0,1.151-1.151,2.3,2.3,0,0,1,4.606,0,1.152,1.152,0,0,0,1.151,1.151,2.3,2.3,0,0,1,0,4.606H226.606A2.306,2.306,0,0,1,224.3,8.06Z" transform="translate(-196.438 0)" fill="#fff"/>
    <ellipse id="Ellipse_456" data-name="Ellipse 456" cx="1.5" cy="1" rx="1.5" ry="1" transform="translate(38.499 50)" fill="#fff"/>
    <rect id="Rectangle_4699" data-name="Rectangle 4699" width="34" height="6" transform="translate(23 38)" fill="#fff"/>
  </g>
</svg>
