<svg xmlns="http://www.w3.org/2000/svg" width="62.448" height="54.053" viewBox="0 0 62.448 54.053">
  <g id="Group_5843" data-name="Group 5843" transform="translate(-136.318 -145.68)">
    <g id="civil-right" transform="translate(111.34 112.646)">
      <g id="Group_3361" data-name="Group 3361" transform="translate(24.979 33.033)">
        <path id="Path_4450" data-name="Path 4450" d="M67.818,67.274a11.917,11.917,0,0,0,9.848-18.639L69.791,36.278H80.013A7.2,7.2,0,0,0,83.2,41.221V74.056H66.247A2.447,2.447,0,0,0,63.8,76.5V81a1.082,1.082,0,0,0,1.083,1.083h44.463A1.082,1.082,0,0,0,110.431,81V76.5a2.446,2.446,0,0,0-2.444-2.444H91.035V41.222a7.2,7.2,0,0,0,3.187-4.944h10.222L96.571,48.633a11.924,11.924,0,1,0,19.7.006L107.33,34.613a1.118,1.118,0,0,0-.913-.5h-12.2a7.191,7.191,0,0,0-14.209,0H67.818a1.116,1.116,0,0,0-.913.5l-8.934,14.02a11.917,11.917,0,0,0,9.847,18.641Zm-3.593-2.853V59.786A1.337,1.337,0,0,1,65.56,58.45h4.514a1.337,1.337,0,0,1,1.335,1.335v4.636A9.8,9.8,0,0,1,64.225,64.421Zm9.351-1.2V59.786a3.5,3.5,0,0,0-3.5-3.5H65.56a3.5,3.5,0,0,0-3.5,3.5v3.437a9.756,9.756,0,1,1,11.516,0ZM67.818,37.209l4.533,7.113a11.985,11.985,0,0,0-9.066,0ZM108.266,76.5v3.42h-42.3V76.5a.279.279,0,0,1,.279-.279h41.741a.279.279,0,0,1,.278.279Zm-19.4-2.444H85.365V42.165a7.027,7.027,0,0,0,3.506,0Zm22.08-29.734a11.985,11.985,0,0,0-9.065,0l4.533-7.113Zm-8.126,20.1V59.786a1.337,1.337,0,0,1,1.336-1.335h4.514a1.337,1.337,0,0,1,1.336,1.335v4.636a9.8,9.8,0,0,1-7.186,0Zm9.351-1.2V59.786a3.5,3.5,0,0,0-3.5-3.5H104.16a3.5,3.5,0,0,0-3.5,3.5v3.437a9.756,9.756,0,1,1,11.516,0ZM87.118,30.165a5.03,5.03,0,1,1-5.03,5.03A5.036,5.036,0,0,1,87.118,30.165Z" transform="translate(-55.893 -28.033)" fill="#fff"/>
        <path id="Path_4451" data-name="Path 4451" d="M78.214,72.006A3.985,3.985,0,1,0,82.2,75.991,3.989,3.989,0,0,0,78.214,72.006Zm0,5.8a1.819,1.819,0,0,1,0-3.639A1.819,1.819,0,0,1,78.214,77.81Z" transform="translate(-66.289 -52.964)" fill="#fff"/>
        <path id="Path_4452" data-name="Path 4452" d="M167.352,72.006a3.984,3.984,0,1,0,3.984,3.985A3.989,3.989,0,0,0,167.352,72.006Zm0,5.8a1.819,1.819,0,0,1,0-3.639A1.819,1.819,0,0,1,167.352,77.81Z" transform="translate(-116.828 -52.964)" fill="#fff"/>
      </g>
    </g>
    <circle id="Ellipse_454" data-name="Ellipse 454" cx="6" cy="6" r="6" transform="translate(162 147)" fill="#fff"/>
  </g>
</svg>
