<svg xmlns="http://www.w3.org/2000/svg" width="53.987" height="53.985" viewBox="0 0 53.987 53.985">
  <g id="Group_5842" data-name="Group 5842" transform="translate(-140.999 -146)">
    <g id="education" transform="translate(141 145.994)">
      <g id="Group_5235" data-name="Group 5235" transform="translate(17.996 6.754)">
        <g id="Group_5234" data-name="Group 5234">
          <rect id="Rectangle_5025" data-name="Rectangle 5025" width="11.247" height="2.249" fill="#fff"/>
        </g>
      </g>
      <g id="Group_5237" data-name="Group 5237" transform="translate(17.996 11.253)">
        <g id="Group_5236" data-name="Group 5236">
          <rect id="Rectangle_5026" data-name="Rectangle 5026" width="2.249" height="2.249" fill="#fff"/>
        </g>
      </g>
      <g id="Group_5239" data-name="Group 5239" transform="translate(22.494 11.253)">
        <g id="Group_5238" data-name="Group 5238">
          <rect id="Rectangle_5027" data-name="Rectangle 5027" width="2.249" height="2.249" fill="#fff"/>
        </g>
      </g>
      <g id="Group_5241" data-name="Group 5241" transform="translate(42.739 1.131)">
        <g id="Group_5240" data-name="Group 5240">
          <path id="Path_5662" data-name="Path 5662" d="M408.719,18.545a1.125,1.125,0,0,1-1.125-1.125V10.672h-2.249V17.42a3.374,3.374,0,0,0,3.374,3.374h2.249V18.545Z" transform="translate(-405.345 -10.672)" fill="#fff"/>
        </g>
      </g>
      <g id="Group_5243" data-name="Group 5243" transform="translate(11.247 0.006)">
        <g id="Group_5242" data-name="Group 5242">
          <path id="Path_5663" data-name="Path 5663" d="M149.087,9.333l-9-9a1.124,1.124,0,0,0-.8-.329H110.052a3.374,3.374,0,0,0-3.374,3.374V15.752h2.249V3.38a1.125,1.125,0,0,1,1.125-1.125h28.776l8.339,8.339V50.617a1.125,1.125,0,0,1-1.125,1.125H128.047v2.249h18a3.374,3.374,0,0,0,3.374-3.374V10.128A1.125,1.125,0,0,0,149.087,9.333Z" transform="translate(-106.678 -0.006)" fill="#fff"/>
        </g>
      </g>
      <g id="Group_5245" data-name="Group 5245" transform="translate(21.37 34.871)">
        <g id="Group_5244" data-name="Group 5244">
          <rect id="Rectangle_5028" data-name="Rectangle 5028" width="2.249" height="7.873" fill="#fff"/>
        </g>
      </g>
      <g id="Group_5247" data-name="Group 5247" transform="translate(-0.001 15.751)">
        <g id="Group_5246" data-name="Group 5246">
          <path id="Path_5664" data-name="Path 5664" d="M44.3,158.421l-21.369-9a1.125,1.125,0,0,0-.873,0l-21.369,9a1.125,1.125,0,0,0,0,2.074l21.369,9a1.129,1.129,0,0,0,.873,0l21.369-9a1.125,1.125,0,0,0,0-2.074Zm-21.805,8.814L4.024,159.458l18.471-7.777,18.471,7.777Z" transform="translate(0.001 -149.335)" fill="#fff"/>
        </g>
      </g>
      <g id="Group_5249" data-name="Group 5249" transform="translate(6.749 28.123)">
        <g id="Group_5248" data-name="Group 5248">
          <path id="Path_5665" data-name="Path 5665" d="M93.253,266.672v17.275l-13.5,6.231-13.5-6.231V266.672H64.011v18a1.125,1.125,0,0,0,.653,1.021l14.621,6.748a1.125,1.125,0,0,0,.942,0l14.621-6.748a1.125,1.125,0,0,0,.653-1.021v-18Z" transform="translate(-64.011 -266.672)" fill="#fff"/>
        </g>
      </g>
      <g id="Group_5251" data-name="Group 5251" transform="translate(39.365 25.874)">
        <g id="Group_5250" data-name="Group 5250">
          <path id="Path_5666" data-name="Path 5666" d="M376.719,245.339v6.748H374.47a1.125,1.125,0,0,0-1.125,1.125v6.748a1.125,1.125,0,0,0,1.125,1.125h2.249a1.125,1.125,0,0,0,.8-.329l1.125-1.125a1.125,1.125,0,0,0,.329-.8v-13.5h-2.249Zm0,13.031-.466.466h-.659v-4.5h1.125Z" transform="translate(-373.345 -245.339)" fill="#fff"/>
        </g>
      </g>
      <g id="Group_5253" data-name="Group 5253" transform="translate(20.245 24.749)">
        <g id="Group_5252" data-name="Group 5252">
          <rect id="Rectangle_5029" data-name="Rectangle 5029" width="4.499" height="2.249" fill="#fff"/>
        </g>
      </g>
    </g>
    <path id="Path_5667" data-name="Path 5667" d="M3180.428,12758.526l19.938,8.059-19.938,8.206-19.5-8.206Z" transform="translate(-3017 -12595)" fill="#fff"/>
  </g>
</svg>
