<svg xmlns="http://www.w3.org/2000/svg" width="66.827" height="56.504" viewBox="0 0 66.827 56.504">
  <g id="history-book" transform="translate(0 -27.186)">
    <g id="Path_4401" data-name="Path 4401" transform="translate(-87.458 0)" fill="none" stroke-linecap="square" stroke-linejoin="round">
      <path d="M139.2,60.117h-.707V39.849h.061a1.305,1.305,0,0,0,.518-2.5L121.39,29.694a1.305,1.305,0,0,0-1.037,0l-17.682,7.652a1.305,1.305,0,0,0,.518,2.5h.061V60.117h-.707a1.958,1.958,0,1,0,0,3.916H139.2a1.958,1.958,0,0,0,0-3.916Zm-4.622,0h-3.916V39.849h3.916ZM122.83,39.849h3.916V60.117H122.83Zm-3.916,20.268H115V39.849h3.916ZM107.167,39.849h3.916V60.117h-3.916Z" stroke="none"/>
      <path d="M 139.1985778808594 64.03280639648438 C 140.2798004150391 64.03280639648438 141.1563720703125 63.15623474121094 141.1563720703125 62.07500457763672 C 141.1563720703125 60.9937744140625 140.2798004150391 60.11720275878906 139.1985778808594 60.11720275878906 L 138.491943359375 60.11720275878906 L 138.491943359375 39.84900283813477 L 138.5532836914063 39.84900283813477 C 139.9700775146484 39.84900283813477 140.3719482421875 37.9087028503418 139.0717010498047 37.34602355957031 L 121.3901672363281 29.69363403320313 C 121.2247924804688 29.62204360961914 121.0482635498047 29.58624839782715 120.8717346191406 29.58624839782715 C 120.6952056884766 29.58624839782715 120.518684387207 29.62204360961914 120.3533172607422 29.69363403320313 L 102.6717681884766 37.34602355957031 C 101.3715286254883 37.9087028503418 101.7733993530273 39.84900283813477 103.190185546875 39.84900283813477 L 103.2515487670898 39.84900283813477 L 103.2515487670898 60.11720275878906 L 102.5447692871094 60.11720275878906 C 101.4635391235352 60.11720275878906 100.5869522094727 60.9937744140625 100.5869522094727 62.07500457763672 C 100.5869522094727 63.15623474121094 101.4635391235352 64.03280639648438 102.5447692871094 64.03280639648438 L 139.1985778808594 64.03280639648438 M 130.6607360839844 39.84900283813477 L 134.5763397216797 39.84900283813477 L 134.5763397216797 60.11720275878906 L 130.6607360839844 60.11720275878906 L 130.6607360839844 39.84900283813477 M 122.8295440673828 39.84900283813477 L 126.7451477050781 39.84900283813477 L 126.7451477050781 60.11720275878906 L 122.8295440673828 60.11720275878906 L 122.8295440673828 39.84900283813477 M 114.9983367919922 39.84900283813477 L 118.913932800293 39.84900283813477 L 118.913932800293 60.11720275878906 L 114.9983367919922 60.11720275878906 L 114.9983367919922 39.84900283813477 M 107.1671295166016 39.84900283813477 L 111.0827331542969 39.84900283813477 L 111.0827331542969 60.11720275878906 L 107.1671295166016 60.11720275878906 L 107.1671295166016 39.84900283813477 M 139.1985778808594 66.43280029296875 L 102.5447692871094 66.43280029296875 C 100.1418685913086 66.43280029296875 98.18695831298828 64.4779052734375 98.18695831298828 62.07500457763672 C 98.18695831298828 60.27224349975586 99.28719329833984 58.72169494628906 100.8515472412109 58.05960464477539 L 100.8515472412109 41.42951583862305 C 100.2082366943359 40.90818023681641 99.74263000488281 40.16764068603516 99.56194305419922 39.29519271850586 C 99.2017822265625 37.55605316162109 100.088623046875 35.84879302978516 101.7185821533203 35.14342498779297 L 119.4000625610352 27.49106407165527 C 119.8671951293945 27.28883361816406 120.362419128418 27.18625450134277 120.8717346191406 27.18625450134277 C 121.3810653686523 27.18625450134277 121.8762893676758 27.28883361816406 122.343635559082 27.49115371704102 L 140.0249633789063 35.14345550537109 C 141.6548461914063 35.84879302978516 142.5416870117188 37.55605316162109 142.1815185546875 39.29519271850586 C 142.0008392333984 40.16764068603516 141.5352478027344 40.90816497802734 140.8919525146484 41.42950057983398 L 140.8919525146484 58.05966949462891 C 142.4561004638672 58.72184753417969 143.5563812255859 60.27238845825195 143.5563812255859 62.07500457763672 C 143.5563812255859 64.4779052734375 141.6014709472656 66.43280029296875 139.1985778808594 66.43280029296875 Z" stroke="none" fill="#fff"/>
    </g>
    <g id="Group_3358" data-name="Group 3358" transform="translate(0 70.505)">
      <path id="Path_4402" data-name="Path 4402" d="M89,386.753v-3.4a1.958,1.958,0,0,0-1.958-1.958H67.2a9.648,9.648,0,0,0-7.7,3.837,9.648,9.648,0,0,0-7.7-3.837H31.958A1.958,1.958,0,0,0,30,383.357v3.4Z" transform="translate(-26.084 -381.399)" fill="#fff"/>
      <path id="Path_4403" data-name="Path 4403" d="M64.869,456.334H1.958a1.958,1.958,0,1,1,0-3.916H64.869a1.958,1.958,0,1,1,0,3.916Z" transform="translate(0 -443.149)" fill="#fff"/>
    </g>
  </g>
</svg>
