<svg xmlns="http://www.w3.org/2000/svg" width="62.19" height="59.568" viewBox="0 0 62.19 59.568">
  <g id="soccer-player-running-with-the-ball" transform="translate(0.001 -9.236)">
    <g id="Group_3368" data-name="Group 3368" transform="translate(-0.001 9.236)">
      <circle id="Ellipse_457" data-name="Ellipse 457" cx="5.239" cy="5.239" r="5.239" transform="translate(41.675)" fill="#fff"/>
      <path id="Path_4472" data-name="Path 4472" d="M3.449,105.977l14.115-.023c2.993.106,4.117-1.285,4.117-1.285l6.959-7.762,8.093,7.873-3.282,14.59a3.512,3.512,0,0,0-.106.856,3.389,3.389,0,0,0,6.707.684l4-17.8c.847-2.778-.65-4.167-.65-4.167l-7.123-7.123,7.777-8.992,4.972,5s1.978,2.083,4.44-.376l8.11-8.165a2.725,2.725,0,0,0-3.863-3.811l-6.721,6.712L42.88,74.085a3.417,3.417,0,0,0-2.39-.972H27.764a2.638,2.638,0,0,0-2.036.961L16.944,84.187a2.637,2.637,0,1,0,3.783,3.65L28.88,78.42l4.695.022L15.622,99.257,3.482,99.226a3.645,3.645,0,0,0-.859.08A3.347,3.347,0,0,0,.083,103.33,3.394,3.394,0,0,0,3.449,105.977Z" transform="translate(0.001 -64.047)" fill="#fff"/>
      <circle id="Ellipse_458" data-name="Ellipse 458" cx="6.644" cy="6.644" r="6.644" transform="translate(46.708 46.279)" fill="#fff"/>
    </g>
  </g>
</svg>
