<svg xmlns="http://www.w3.org/2000/svg" width="50" height="50" viewBox="0 0 50 50">
  <g id="Group_6347" data-name="Group 6347" transform="translate(-234 -504)">
    <path id="Rectangle_6769" data-name="Rectangle 6769" d="M5,0H50a0,0,0,0,1,0,0V50a0,0,0,0,1,0,0H5a5,5,0,0,1-5-5V5A5,5,0,0,1,5,0Z" transform="translate(234 504)" fill="#1abf73"/>
    <path id="Icon_awesome-file-excel" data-name="Icon awesome-file-excel" d="M14.992,9.1V0H1.606A1.6,1.6,0,0,0,0,1.606V32.662a1.6,1.6,0,0,0,1.606,1.606H24.095A1.6,1.6,0,0,0,25.7,32.662V10.709H16.6A1.611,1.611,0,0,1,14.992,9.1Zm4.023,7.128-4.023,6.258,4.023,6.258a.8.8,0,0,1-.676,1.238H16a.806.806,0,0,1-.709-.422c-1.312-2.423-2.443-4.6-2.443-4.6-.428.991-.669,1.339-2.45,4.6a.8.8,0,0,1-.7.422H7.362a.8.8,0,0,1-.676-1.238L10.722,22.5,6.686,16.237A.8.8,0,0,1,7.362,15H9.691a.806.806,0,0,1,.709.422c1.747,3.266,1.339,2.249,2.45,4.585,0,0,.408-.783,2.45-4.585A.806.806,0,0,1,16.01,15h2.329A.8.8,0,0,1,19.015,16.231ZM25.7,8.159v.408H17.134V0h.408A1.605,1.605,0,0,1,18.68.469l6.552,6.559A1.6,1.6,0,0,1,25.7,8.159Z" transform="translate(245.287 511.98)" fill="#fff"/>
  </g>
</svg>
