<svg xmlns="http://www.w3.org/2000/svg" width="50" height="50" viewBox="0 0 50 50">
  <g id="Group_6348" data-name="Group 6348" transform="translate(-356 -522)">
    <path id="Path_10177" data-name="Path 10177" d="M5,0H50V50H5a5,5,0,0,1-5-5V5A5,5,0,0,1,5,0Z" transform="translate(356 522)" fill="#f05974"/>
    <path id="Icon_awesome-file-pdf" data-name="Icon awesome-file-pdf" d="M12.117,16.4a5.944,5.944,0,0,1-.133-3C12.544,13.393,12.49,15.755,12.117,16.4ZM12,19.417a28.992,28.992,0,0,1-1.892,4.014,25.2,25.2,0,0,1,4.19-1.4A8.39,8.39,0,0,1,12,19.417ZM5.736,27.406c0,.051.879-.346,2.325-2.574A8.968,8.968,0,0,0,5.736,27.406ZM16.52,10.243h9.06v21a1.565,1.565,0,0,1-1.6,1.536H1.6A1.565,1.565,0,0,1,0,31.241V1.536A1.565,1.565,0,0,1,1.6,0H14.922V8.706A1.573,1.573,0,0,0,16.52,10.243Zm-.533,11A6.479,6.479,0,0,1,13.143,17.8c.3-1.184.773-2.983.413-4.11a1.686,1.686,0,0,0-3.184-.435c-.333,1.172-.027,2.823.54,4.929a59.106,59.106,0,0,1-2.718,5.493c-.007,0-.007.006-.013.006-1.805.89-4.9,2.849-3.63,4.353a2.108,2.108,0,0,0,1.432.64c1.192,0,2.378-1.152,4.07-3.956a39.15,39.15,0,0,1,5.263-1.485,10.4,10.4,0,0,0,4.263,1.248A1.651,1.651,0,0,0,20.89,21.7c-.926-.871-3.617-.621-4.9-.461ZM25.114,6.722,18.585.448A1.631,1.631,0,0,0,17.453,0h-.4V8.194H25.58V7.8A1.5,1.5,0,0,0,25.114,6.722ZM20.178,23.066c.273-.173-.167-.762-2.851-.576C19.8,23.5,20.178,23.066,20.178,23.066Z" transform="translate(368 530.654)" fill="#fff"/>
  </g>
</svg>
