<svg xmlns="http://www.w3.org/2000/svg" width="50" height="50" viewBox="0 0 50 50">
  <g id="Group_6344" data-name="Group 6344" transform="translate(-121 -333)">
    <path id="Path_9172" data-name="Path 9172" d="M5,0H50V50H5a5,5,0,0,1-5-5V5A5,5,0,0,1,5,0Z" transform="translate(121 333)" fill="#feaf43"/>
    <path id="Icon_awesome-file-powerpoint" data-name="Icon awesome-file-powerpoint" d="M12.648,17.708a1.675,1.675,0,0,1,1.326.529,2.4,2.4,0,0,1-.013,2.88,1.733,1.733,0,0,1-1.378.555H10.826V17.708h1.822ZM24.617,6.856l-6.4-6.4A1.566,1.566,0,0,0,17.108,0h-.392V8.358h8.358v-.4A1.562,1.562,0,0,0,24.617,6.856ZM14.626,8.88V0H1.567A1.563,1.563,0,0,0,0,1.567v30.3a1.563,1.563,0,0,0,1.567,1.567h21.94a1.563,1.563,0,0,0,1.567-1.567V10.447h-8.88A1.572,1.572,0,0,1,14.626,8.88Zm3.461,10.787c0,5.9-5.8,5.067-7.254,5.067v3.735a.786.786,0,0,1-.784.784H8.038a.786.786,0,0,1-.784-.784V15.423a.786.786,0,0,1,.784-.784h5.289C16.233,14.639,18.087,16.781,18.087,19.667Z" transform="translate(133 341)" fill="#fff"/>
  </g>
</svg>
