<svg xmlns="http://www.w3.org/2000/svg" width="50" height="50" viewBox="0 0 50 50">
  <g id="Group_6346" data-name="Group 6346" transform="translate(-106 -516)">
    <path id="Rectangle_6770" data-name="Rectangle 6770" d="M5,0H50a0,0,0,0,1,0,0V50a0,0,0,0,1,0,0H5a5,5,0,0,1-5-5V5A5,5,0,0,1,5,0Z" transform="translate(106 516)" fill="#f24822"/>
    <g id="XMLID_459_" transform="translate(101.301 525.645)">
      <path id="XMLID_463_" d="M123.793,185.124h1.1l1.169,1.919h1.25L126,184.89a1.6,1.6,0,0,0,.754-.657,1.9,1.9,0,0,0,.278-1.012,1.845,1.845,0,0,0-.137-.689,2.055,2.055,0,0,0-.379-.613,1.89,1.89,0,0,0-.577-.435,1.627,1.627,0,0,0-.73-.165H122.68v5.725h1.113Zm0-2.831h1.347a.651.651,0,0,1,.286.069.786.786,0,0,1,.25.194.972.972,0,0,1,.173.294,1.035,1.035,0,0,1,.065.371,1.141,1.141,0,0,1-.056.363.986.986,0,0,1-.153.294.731.731,0,0,1-.23.2.589.589,0,0,1-.286.073h-1.4Z" transform="translate(-97.803 -165.763)" fill="#fff"/>
      <path id="XMLID_467_" d="M179.34,185.616h2l.532,1.427h1.145l-2.177-5.725h-.984l-2.185,5.725h1.145Zm1.008-3.032.79,2.25h-1.613Z" transform="translate(-148.077 -165.763)" fill="#fff"/>
      <path id="XMLID_470_" d="M248.437,185.124h1.1l1.169,1.919h1.25l-1.306-2.153a1.6,1.6,0,0,0,.754-.657,1.9,1.9,0,0,0,.278-1.012,1.845,1.845,0,0,0-.137-.689,2.056,2.056,0,0,0-.379-.613,1.889,1.889,0,0,0-.577-.435,1.626,1.626,0,0,0-.73-.165h-2.532v5.725h1.113Zm0-2.831h1.347a.65.65,0,0,1,.286.069.786.786,0,0,1,.25.194.97.97,0,0,1,.173.294,1.035,1.035,0,0,1,.065.371,1.141,1.141,0,0,1-.056.363.988.988,0,0,1-.153.294.731.731,0,0,1-.23.2.589.589,0,0,1-.286.073h-1.4Z" transform="translate(-211.755 -165.763)" fill="#fff"/>
      <g id="rar_1_" data-name="rar (1)" transform="translate(-63.461 -32.121)">
        <path id="Path_9173" data-name="Path 9173" d="M97.98,34.809V32H82.809A2.813,2.813,0,0,0,80,34.809v9.552h.562a.562.562,0,1,1,0,1.124H80v8.99h24.723V46.609h-.562a.562.562,0,1,1,0-1.124h.562V44.361h-.562a.562.562,0,1,1,0-1.124h.562v-4.5h-2.809a3.938,3.938,0,0,1-3.933-3.933Zm1.686,8.428h1.124a.562.562,0,0,1,0,1.124H99.666a.562.562,0,1,1,0-1.124Zm-4.5,0h1.124a.562.562,0,0,1,0,1.124H95.171a.562.562,0,0,1,0-1.124Zm-4.5,0H91.8a.562.562,0,0,1,0,1.124H90.676a.562.562,0,0,1,0-1.124Zm-4.5,0H87.3a.562.562,0,1,1,0,1.124H86.181a.562.562,0,1,1,0-1.124Zm-4.5,0h1.124a.562.562,0,1,1,0,1.124H81.686a.562.562,0,1,1,0-1.124Zm1.124,3.371H81.686a.562.562,0,1,1,0-1.124h1.124a.562.562,0,1,1,0,1.124Zm2.248-1.124H83.933a.562.562,0,1,1,0-1.124h1.124a.562.562,0,0,1,0,1.124ZM87.3,46.609H86.181a.562.562,0,1,1,0-1.124H87.3a.562.562,0,1,1,0,1.124Zm2.248-1.124H88.428a.562.562,0,0,1,0-1.124h1.124a.562.562,0,1,1,0,1.124ZM91.8,46.609H90.676a.562.562,0,0,1,0-1.124H91.8a.562.562,0,0,1,0,1.124Zm2.248-1.124H92.923a.562.562,0,0,1,0-1.124h1.124a.562.562,0,0,1,0,1.124Zm2.248,1.124H95.171a.562.562,0,0,1,0-1.124h1.124a.562.562,0,0,1,0,1.124Zm2.248-1.124H97.418a.562.562,0,0,1,0-1.124h1.124a.562.562,0,0,1,0,1.124Zm2.248,1.124H99.666a.562.562,0,1,1,0-1.124h1.124a.562.562,0,0,1,0,1.124Zm2.809-1.686a.562.562,0,0,1-.562.562h-1.124a.562.562,0,1,1,0-1.124h1.124A.562.562,0,0,1,103.6,44.923Z" fill="#fff"/>
        <path id="Path_9174" data-name="Path 9174" d="M250,414.784l-.453,1.209h.907Z" transform="translate(-157.636 -355.899)" fill="#fff"/>
        <path id="Path_9175" data-name="Path 9175" d="M321.124,400.562a.563.563,0,0,0-.562-.562H320v1.124h.562A.563.563,0,0,0,321.124,400.562Z" transform="translate(-223.144 -342.154)" fill="#fff"/>
        <path id="Path_9176" data-name="Path 9176" d="M354.809,48.137h2.015L352,43.313v2.015A2.813,2.813,0,0,0,354.809,48.137Z" transform="translate(-252.896 -10.518)" fill="#fff"/>
        <path id="Path_9177" data-name="Path 9177" d="M80,373.057a2.813,2.813,0,0,0,2.809,2.809h19.1a2.813,2.813,0,0,0,2.809-2.809V368H80Zm15.733-3.371a.562.562,0,0,1,.562-.562h1.124a1.686,1.686,0,0,1,.218,3.357l1.3,1.3a.562.562,0,1,1-.795.795l-1.288-1.288v.891a.562.562,0,1,1-1.124,0Zm-5.583,4.3,1.686-4.5a.562.562,0,0,1,1.052,0l1.686,4.5a.562.562,0,0,1-1.052.395l-.285-.759h-1.75l-.285.759a.562.562,0,1,1-1.052-.395Zm-4.531-4.3a.562.562,0,0,1,.562-.562H87.3a1.686,1.686,0,0,1,.218,3.357l1.3,1.3a.562.562,0,1,1-.795.795l-1.288-1.288v.891a.562.562,0,1,1-1.124,0Z" transform="translate(0 -312.401)" fill="#fff"/>
        <path id="Path_9178" data-name="Path 9178" d="M177.124,400.562a.563.563,0,0,0-.562-.562H176v1.124h.562A.563.563,0,0,0,177.124,400.562Z" transform="translate(-89.257 -342.154)" fill="#fff"/>
      </g>
    </g>
  </g>
</svg>
