<svg xmlns="http://www.w3.org/2000/svg" width="50" height="50" viewBox="0 0 50 50">
  <g id="Group_6350" data-name="Group 6350" transform="translate(-573 -498)">
    <path id="Path_10179" data-name="Path 10179" d="M5,0H50V50H5a5,5,0,0,1-5-5V5A5,5,0,0,1,5,0Z" transform="translate(573 498)" fill="#36bfd7"/>
    <path id="Icon_awesome-file-alt" data-name="Icon awesome-file-alt" d="M15.234,8.789V0H1.632A1.589,1.589,0,0,0,0,1.551V31.539A1.589,1.589,0,0,0,1.632,33.09H24.484a1.589,1.589,0,0,0,1.632-1.551v-21.2H16.866A1.6,1.6,0,0,1,15.234,8.789Zm4.353,15.252a.8.8,0,0,1-.816.776H7.345a.8.8,0,0,1-.816-.776v-.517a.8.8,0,0,1,.816-.776H18.771a.8.8,0,0,1,.816.776Zm0-4.136a.8.8,0,0,1-.816.776H7.345a.8.8,0,0,1-.816-.776v-.517a.8.8,0,0,1,.816-.776H18.771a.8.8,0,0,1,.816.776Zm0-4.653v.517a.8.8,0,0,1-.816.776H7.345a.8.8,0,0,1-.816-.776v-.517a.8.8,0,0,1,.816-.776H18.771A.8.8,0,0,1,19.587,15.252Zm6.529-7.374v.394H17.41V0h.415a1.676,1.676,0,0,1,1.156.452L25.64,6.786A1.508,1.508,0,0,1,26.116,7.878Z" transform="translate(585 506.342)" fill="#fff"/>
  </g>
</svg>
