<svg xmlns="http://www.w3.org/2000/svg" width="50" height="50" viewBox="0 0 50 50">
  <g id="Group_6351" data-name="Group 6351" transform="translate(-501 -609)">
    <path id="Path_10180" data-name="Path 10180" d="M5,0H50V50H5a5,5,0,0,1-5-5V5A5,5,0,0,1,5,0Z" transform="translate(501 609)" fill="#4f92ea"/>
    <path id="Icon_awesome-file-word" data-name="Icon awesome-file-word" d="M14.992,9.1V0H1.606A1.6,1.6,0,0,0,0,1.606V32.662a1.6,1.6,0,0,0,1.606,1.606H24.095A1.6,1.6,0,0,0,25.7,32.662V10.709H16.6A1.611,1.611,0,0,1,14.992,9.1Zm3.822,8.032h1.6a.8.8,0,0,1,.783.984L18.653,29.362a.8.8,0,0,1-.783.622H15.327a.8.8,0,0,1-.776-.609c-1.727-6.927-1.392-5.435-1.713-7.4H12.8c-.074.957-.161,1.165-1.713,7.4a.8.8,0,0,1-.776.609H7.831a.8.8,0,0,1-.783-.629L4.518,18.111a.8.8,0,0,1,.783-.977h1.64a.8.8,0,0,1,.79.649C8.775,23,9.076,25.112,9.136,25.962c.107-.683.489-2.189,1.968-8.212a.8.8,0,0,1,.783-.609h1.948a.8.8,0,0,1,.783.616c1.606,6.72,1.928,8.3,1.981,8.661-.013-.75-.174-1.191,1.446-8.647A.776.776,0,0,1,18.814,17.134ZM25.7,8.159v.408H17.134V0h.408A1.605,1.605,0,0,1,18.68.469l6.552,6.559A1.6,1.6,0,0,1,25.7,8.159Z" transform="translate(513.287 616.98)" fill="#fff"/>
  </g>
</svg>
