<svg xmlns="http://www.w3.org/2000/svg" width="50" height="50" viewBox="0 0 50 50">
  <g id="Group_6349" data-name="Group 6349" transform="translate(-432 -522)">
    <path id="Path_10178" data-name="Path 10178" d="M5,0H50V50H5a5,5,0,0,1-5-5V5A5,5,0,0,1,5,0Z" transform="translate(432 522)" fill="#bec4cf"/>
    <path id="Icon_awesome-file-archive" data-name="Icon awesome-file-archive" d="M25.275,7.04,18.712.469A1.608,1.608,0,0,0,17.572,0h-.409V8.582h8.582V8.173A1.6,1.6,0,0,0,25.275,7.04ZM8.608,22.527a2.016,2.016,0,0,0-2.172,1.81,2.018,2.018,0,0,0,2.179,1.81,2.016,2.016,0,0,0,2.172-1.81A2.023,2.023,0,0,0,8.608,22.527ZM15.018,9.118V0H10.754V2.145H8.608V0h-7A1.605,1.605,0,0,0,0,1.609V32.717a1.605,1.605,0,0,0,1.609,1.609H24.136a1.605,1.605,0,0,0,1.609-1.609V10.727H16.627A1.614,1.614,0,0,1,15.018,9.118ZM6.429,2.145H8.575V4.291H6.429ZM8.595,27.89a3.516,3.516,0,0,1-3.446-4.217l1.314-6.51V15.018H8.608V12.872H6.463V10.727H8.608V8.582H6.463V6.436H8.608V4.291h2.145V6.436H8.608V8.582h2.145v2.145H8.608v2.145h2.145v2.145H8.608v2.145H10.09a.811.811,0,0,1,.791.65l1.16,5.88a3.515,3.515,0,0,1-3.446,4.2Z" transform="translate(444.287 528.98)" fill="#fff"/>
  </g>
</svg>
