<svg xmlns="http://www.w3.org/2000/svg" width="49" height="60" viewBox="0 0 49 60">
  <g id="Group_5938" data-name="Group 5938" transform="translate(-931 -168)">
    <path id="Rectangle_4530" data-name="Rectangle 4530" d="M10,0H49a0,0,0,0,1,0,0V60a0,0,0,0,1,0,0H10A10,10,0,0,1,0,50V10A10,10,0,0,1,10,0Z" transform="translate(931 168)" fill="#1abf73"/>
    <path id="Icon_awesome-file-pdf" data-name="Icon awesome-file-pdf" d="M10.741,15.123a5.7,5.7,0,0,1-.118-2.77C11.119,12.354,11.072,14.533,10.741,15.123Zm-.1,2.787a27.248,27.248,0,0,1-1.677,3.7,21.744,21.744,0,0,1,3.714-1.293A7.649,7.649,0,0,1,10.641,17.91ZM5.084,25.28c0,.047.779-.319,2.061-2.374A8.162,8.162,0,0,0,5.084,25.28Zm9.56-15.832h8.031V28.817a1.414,1.414,0,0,1-1.417,1.417H1.417A1.414,1.414,0,0,1,0,28.817V1.417A1.414,1.414,0,0,1,1.417,0h11.81V8.031A1.421,1.421,0,0,0,14.645,9.448Zm-.472,10.145a5.927,5.927,0,0,1-2.522-3.177,8.488,8.488,0,0,0,.366-3.791,1.479,1.479,0,0,0-2.823-.4,9.819,9.819,0,0,0,.478,4.547,55.451,55.451,0,0,1-2.409,5.067c-.006,0-.006.006-.012.006-1.6.821-4.346,2.628-3.218,4.016a1.835,1.835,0,0,0,1.27.591c1.057,0,2.108-1.063,3.608-3.649a33.66,33.66,0,0,1,4.665-1.37,8.949,8.949,0,0,0,3.779,1.152,1.529,1.529,0,0,0,1.163-2.563c-.821-.8-3.206-.573-4.346-.425ZM22.262,6.2,16.475.413a1.416,1.416,0,0,0-1-.413h-.354V7.559h7.559V7.2A1.413,1.413,0,0,0,22.262,6.2ZM17.887,21.276c.242-.159-.148-.7-2.527-.531C17.55,21.678,17.887,21.276,17.887,21.276Z" transform="translate(944 183)" fill="#fff"/>
  </g>
</svg>
