<svg xmlns="http://www.w3.org/2000/svg" width="23.424" height="24.402" viewBox="0 0 23.424 24.402">
  <defs>
    <style>
      .cls-1 {
        fill: #034aa6;
      }
    </style>
  </defs>
  <path id="Icon_awesome-calendar-alt" data-name="Icon awesome-calendar-alt" class="cls-1" d="M0,22.114A2.407,2.407,0,0,0,2.51,24.4h18.4a2.407,2.407,0,0,0,2.51-2.288V9.151H0Zm16.731-9.341a.6.6,0,0,1,.627-.572H19.45a.6.6,0,0,1,.627.572v1.906a.6.6,0,0,1-.627.572H17.359a.6.6,0,0,1-.627-.572Zm0,6.1a.6.6,0,0,1,.627-.572H19.45a.6.6,0,0,1,.627.572V20.78a.6.6,0,0,1-.627.572H17.359a.6.6,0,0,1-.627-.572Zm-6.693-6.1a.6.6,0,0,1,.627-.572h2.091a.6.6,0,0,1,.627.572v1.906a.6.6,0,0,1-.627.572H10.666a.6.6,0,0,1-.627-.572Zm0,6.1a.6.6,0,0,1,.627-.572h2.091a.6.6,0,0,1,.627.572V20.78a.6.6,0,0,1-.627.572H10.666a.6.6,0,0,1-.627-.572Zm-6.693-6.1a.6.6,0,0,1,.627-.572H6.065a.6.6,0,0,1,.627.572v1.906a.6.6,0,0,1-.627.572H3.974a.6.6,0,0,1-.627-.572Zm0,6.1a.6.6,0,0,1,.627-.572H6.065a.6.6,0,0,1,.627.572V20.78a.6.6,0,0,1-.627.572H3.974a.6.6,0,0,1-.627-.572ZM20.914,3.05H18.4V.763A.8.8,0,0,0,17.568,0H15.895a.8.8,0,0,0-.837.763V3.05H8.366V.763A.8.8,0,0,0,7.529,0H5.856a.8.8,0,0,0-.837.763V3.05H2.51A2.407,2.407,0,0,0,0,5.338V7.626H23.424V5.338A2.407,2.407,0,0,0,20.914,3.05Z"/>
</svg>
