<svg xmlns="http://www.w3.org/2000/svg" xmlns:xlink="http://www.w3.org/1999/xlink" width="28.684" height="24.99" viewBox="0 0 28.684 24.99">
  <defs>
    <style>
      .cls-1 {
        fill: none;
      }

      .cls-2 {
        clip-path: url(#clip-path);
      }

      .cls-3 {
        fill: #034aa6;
      }
    </style>
    <clipPath id="clip-path">
      <rect id="Rectangle_3383" data-name="Rectangle 3383" class="cls-1" width="28.684" height="24.99"/>
    </clipPath>
  </defs>
  <g id="Artwork_2" data-name="Artwork 2" transform="translate(14.342 12.495)">
    <g id="Group_1841" data-name="Group 1841" class="cls-2" transform="translate(-14.342 -12.495)">
      <path id="Path_1092" data-name="Path 1092" class="cls-3" d="M271.339,0h-8.347a2.527,2.527,0,0,0-2.521,2.521v7.16l-.672,2.23a1.681,1.681,0,0,0,2.5,1.91l1.5-.936h7.546a2.527,2.527,0,0,0,2.521-2.521V2.521A2.527,2.527,0,0,0,271.339,0m-3.305,9.3h-1.793a.84.84,0,1,1,0-1.681h1.793a.84.84,0,0,1,0,1.681m1.345-4.034H264.9a.84.84,0,0,1,0-1.681h4.482a.84.84,0,1,1,0,1.681" transform="translate(-245.176 0)"/>
      <path id="Path_1093" data-name="Path 1093" class="cls-3" d="M0,374.1a4.207,4.207,0,0,0,4.2,4.034H24.482a4.207,4.207,0,0,0,4.2-4.034Z" transform="translate(0 -353.142)"/>
      <path id="Path_1094" data-name="Path 1094" class="cls-3" d="M143.852,214a.952.952,0,1,1-.952.952.952.952,0,0,1,.952-.952" transform="translate(-134.894 -202.011)"/>
      <path id="Path_1095" data-name="Path 1095" class="cls-3" d="M134.9,278.952V281.7h2.8v-2.745a.824.824,0,0,0-.342-.611A1.711,1.711,0,0,0,136.3,278c-.745,0-1.4.443-1.4.952" transform="translate(-127.342 -262.426)"/>
      <path id="Path_1096" data-name="Path 1096" class="cls-3" d="M57.707,112.74l-1.081.678a3.361,3.361,0,0,1-5-3.815l.6-1.994V104h-8.8a2.527,2.527,0,0,0-2.521,2.521v10.084a2.51,2.51,0,0,0,.146.84h3.44V114.7a2.475,2.475,0,0,1,1.02-1.955,2.633,2.633,0,1,1,4.129,0l.045.034a2.481,2.481,0,0,1,.975,1.922v2.745h14.2a2.51,2.51,0,0,0,.146-.84V112.74H57.707" transform="translate(-38.609 -98.174)"/>
    </g>
  </g>
</svg>
