<svg xmlns="http://www.w3.org/2000/svg" width="16.988" height="22.651" viewBox="0 0 16.988 22.651">
  <defs>
    <style>
      .cls-1 {
        fill: #bec4cf;
      }
    </style>
  </defs>
  <path id="Icon_awesome-file-pdf" data-name="Icon awesome-file-pdf" class="cls-1" d="M8.047,11.33a4.268,4.268,0,0,1-.088-2.075C8.33,9.255,8.3,10.888,8.047,11.33Zm-.075,2.088a20.414,20.414,0,0,1-1.256,2.774A16.291,16.291,0,0,1,9.5,15.223,5.731,5.731,0,0,1,7.972,13.418ZM3.809,18.939c0,.035.584-.239,1.544-1.778A6.115,6.115,0,0,0,3.809,18.939ZM10.972,7.078h6.017V21.589a1.059,1.059,0,0,1-1.062,1.062H1.062A1.059,1.059,0,0,1,0,21.589V1.062A1.059,1.059,0,0,1,1.062,0H9.91V6.017A1.065,1.065,0,0,0,10.972,7.078Zm-.354,7.6A4.44,4.44,0,0,1,8.729,12.3,6.359,6.359,0,0,0,9,9.459a1.108,1.108,0,0,0-2.115-.3,7.356,7.356,0,0,0,.358,3.407,41.543,41.543,0,0,1-1.805,3.8s0,0-.009,0c-1.2.615-3.256,1.969-2.411,3.008a1.375,1.375,0,0,0,.951.442c.792,0,1.579-.8,2.7-2.734a25.217,25.217,0,0,1,3.495-1.026A6.7,6.7,0,0,0,13,16.917,1.145,1.145,0,0,0,13.874,15c-.615-.6-2.4-.429-3.256-.319ZM16.679,4.645,12.343.31A1.061,1.061,0,0,0,11.591,0h-.265V5.663h5.663v-.27A1.058,1.058,0,0,0,16.679,4.645ZM13.4,15.94c.181-.119-.111-.526-1.893-.4C13.148,16.241,13.4,15.94,13.4,15.94Z"/>
</svg>
