<svg id="log-out" xmlns="http://www.w3.org/2000/svg" width="24" height="24" viewBox="0 0 24 24">
  <path id="Path_5139" data-name="Path 5139" d="M15,13a1,1,0,0,0-1,1v4a1,1,0,0,1-1,1H10V4A2.015,2.015,0,0,0,8.638,2.1l-.3-.1H13a1,1,0,0,1,1,1V6a1,1,0,1,0,2,0V3a3,3,0,0,0-3-3H2.25a.781.781,0,0,0-.107.022C2.095.018,2.049,0,2,0A2,2,0,0,0,0,2V20a2.015,2.015,0,0,0,1.362,1.9L7.38,23.907A2.071,2.071,0,0,0,8,24a2,2,0,0,0,2-2V21h3a3,3,0,0,0,3-3V14a1,1,0,0,0-1-1Z" fill="#034aa6"/>
  <path id="Path_5140" data-name="Path 5140" d="M23.707,9.293l-4-4A1,1,0,0,0,18,6V9H14a1,1,0,0,0,0,2h4v3a1,1,0,0,0,1.707.707l4-4a1,1,0,0,0,0-1.414Z" fill="#034aa6"/>
</svg>
