<?xml version="1.0" encoding="utf-8"?>
<!-- Generator: Adobe Illustrator 24.1.2, SVG Export Plug-In . SVG Version: 6.00 Build 0)  -->
<svg version="1.1" id="Capa_1" xmlns="http://www.w3.org/2000/svg" xmlns:xlink="http://www.w3.org/1999/xlink" x="0px" y="0px"
	 viewBox="0 0 340.4 512" style="enable-background:new 0 0 340.4 512;" xml:space="preserve">
<style type="text/css">
	.st0{fill:#FFFFFF;}
</style>
<g id="list" transform="translate(0 3.813)">
	<path id="Subtraction_1" class="st0" d="M310.4,507.6H36.3c-16.5,0-30-13.4-30-30V99c0-16.5,13.4-29.9,30-30h57.8v25.7H36.3
		c-2.4,0-4.3,1.9-4.3,4.3l0,0v378.6c0,2.4,1.9,4.3,4.3,4.3h274.1c2.4,0,4.3-1.9,4.3-4.3l0,0V197.5h-72.8c-16.5,0-29.9-13.4-30-30
		V94.7h-52.4V69h58.2c7.9,0,15.5,3.2,21.1,8.8l92.8,92.7c5.6,5.6,8.8,13.2,8.8,21.1v285.9C340.3,494.1,326.9,507.5,310.4,507.6z
		 M237.6,112.9v54.6c0,2.4,1.9,4.3,4.3,4.3h54.6L237.6,112.9z"/>
	<path id="Path_180" class="st0" d="M151.7,265.2h112.5c9.8,0,17.7-5.8,17.7-12.8s-7.9-12.8-17.7-12.8H151.7
		c-9.8,0-17.7,5.8-17.7,12.8C134,259.4,141.9,265.2,151.7,265.2z"/>
	<path id="Path_181" class="st0" d="M151.7,350.8h112.5c9.8,0,17.7-5.8,17.7-12.8c0-7.1-7.9-12.8-17.7-12.8H151.7
		c-9.8,0-17.7,5.8-17.7,12.8C134,345.1,141.9,350.8,151.7,350.8z"/>
	<path id="Path_182" class="st0" d="M264.6,410.8H151.7c-9.7,0-17.6,5.8-17.6,12.8s7.9,12.8,17.6,12.8h112.9
		c9.7,0,17.6-5.8,17.6-12.8S274.3,410.8,264.6,410.8z"/>
	<path id="Path_183" class="st0" d="M76.5,265.2h24.3c2.1,0,3.8-5.8,3.8-12.8s-1.7-12.8-3.8-12.8H76.5c-2.1,0-3.8,5.8-3.8,12.8
		C72.7,259.4,74.4,265.2,76.5,265.2z"/>
	<path id="Path_184" class="st0" d="M76.5,350.8h24.3c2.1,0,3.8-5.8,3.8-12.8c0-7.1-1.7-12.8-3.8-12.8H76.5c-2.1,0-3.8,5.8-3.8,12.8
		C72.6,345.1,74.4,350.8,76.5,350.8z"/>
	<path id="Path_185" class="st0" d="M101.2,410.8H76.5c-2.1,0-3.8,5.8-3.8,12.8s1.7,12.8,3.8,12.8h24.7c2.1,0,3.8-5.8,3.8-12.8
		S103.4,410.8,101.2,410.8z"/>
</g>
<path id="attach" class="st0" d="M115.7-0.4C85.5-0.4,61,24.1,61,54.3v18.6c0,4,3.3,7.3,7.3,7.3s7.3-3.3,7.3-7.3V54.4
	c0.5-22.2,18.8-39.7,41-39.2c21.5,0.5,38.8,17.8,39.2,39.2v80.2c0,14.1-11.4,25.5-25.5,25.5s-25.5-11.4-25.5-25.5v-73
	c0-6,4.9-10.9,10.9-10.9s10.9,4.9,10.9,10.9v69.3c0,4,3.3,7.3,7.3,7.3s7.3-3.3,7.3-7.3V61.6c0-14.1-11.4-25.5-25.5-25.5
	S90.2,47.5,90.2,61.6v72.9c0,22.2,18,40.1,40.1,40.1s40.1-18,40.1-40.1V54.3C170.4,24.1,145.9-0.3,115.7-0.4z"/>
</svg>
