<svg xmlns="http://www.w3.org/2000/svg" width="27.157" height="27.158" viewBox="0 0 27.157 27.158">
  <defs>
    <style>
      .cls-1 {
        fill: none;
        stroke: #034aa6;
        stroke-linecap: round;
        stroke-linejoin: round;
        stroke-width: 3px;
      }

      .cls-2 {
        fill: #034aa6;
      }
    </style>
  </defs>
  <g id="Group_1215" data-name="Group 1215" transform="translate(-409.142 -1273.142)">
    <g id="Group_1101" data-name="Group 1101" transform="translate(410.668 1274.668)">
      <path id="Icon_feather-message-circle" data-name="Icon feather-message-circle" class="cls-1" d="M23.7,11.19a11.032,11.032,0,0,1-1.185,5,11.19,11.19,0,0,1-10,6.187,11.032,11.032,0,0,1-5-1.185L0,23.7l2.5-7.5a11.032,11.032,0,0,1-1.185-5,11.19,11.19,0,0,1,6.187-10,11.032,11.032,0,0,1,5-1.185h.658A11.163,11.163,0,0,1,23.7,10.531Z" transform="matrix(1, -0.017, 0.017, 1, 0, 0.414)"/>
    </g>
    <path id="Icon_awesome-question" data-name="Icon awesome-question" class="cls-2" d="M6.935,0a5.64,5.64,0,0,0-5.01,2.65.7.7,0,0,0,.151.957l1.256.952A.7.7,0,0,0,4.3,4.438,2.824,2.824,0,0,1,6.709,3c.9,0,2,.576,2,1.445,0,.656-.542.994-1.426,1.489-1.031.578-2.4,1.3-2.4,3.1v.285a.7.7,0,0,0,.7.7H7.7a.7.7,0,0,0,.7-.7V9.146c0-1.248,3.646-1.3,3.646-4.675C12.043,1.929,9.406,0,6.935,0ZM6.643,10.871A2.016,2.016,0,1,0,8.66,12.887,2.019,2.019,0,0,0,6.643,10.871Z" transform="translate(416.251 1278.583)"/>
  </g>
</svg>
