<svg id="ebook" xmlns="http://www.w3.org/2000/svg" width="25.831" height="24.853" viewBox="0 0 25.831 24.853">
  <defs>
    <style>
      .cls-1 {
        fill: #034aa6;
      }

      .cls-2 {
        fill: #4f91e9;
      }
    </style>
  </defs>
  <path id="Rectangle_3342" data-name="Rectangle 3342" class="cls-1" d="M1,0H22a1,1,0,0,1,1,1V16a0,0,0,0,1,0,0H0a0,0,0,0,1,0,0V1A1,1,0,0,1,1,0Z" transform="translate(1.4 1.368)"/>
  <g id="Group_1179" data-name="Group 1179">
    <g id="Group_1178" data-name="Group 1178">
      <path id="Path_168" data-name="Path 168" class="cls-1" d="M23.561,16H2.27A2.3,2.3,0,0,0,0,18.33V35.416a2.3,2.3,0,0,0,2.27,2.33h7.907L9.421,39.3H8.375a.777.777,0,0,0,0,1.553h9.081a.777.777,0,0,0,0-1.553H16.41l-.757-1.553h7.907a2.3,2.3,0,0,0,2.27-2.33V18.33A2.3,2.3,0,0,0,23.561,16ZM11.113,39.3l.757-1.553h2.092l.757,1.553Zm13.2-3.883a.768.768,0,0,1-.757.777H2.27a.768.768,0,0,1-.757-.777v-.777h22.8Zm0-2.33H1.514V18.33a.768.768,0,0,1,.757-.777h21.29a.768.768,0,0,1,.757.777Z" transform="translate(0 -16)"/>
    </g>
  </g>
  <path id="Rectangle_3343" data-name="Rectangle 3343" class="cls-1" d="M1,0H22a1,1,0,0,1,1,1V16a0,0,0,0,1,0,0H0a0,0,0,0,1,0,0V1A1,1,0,0,1,1,0Z" transform="translate(1.4 1.368)"/>
  <path id="Icon_awesome-book-open" data-name="Icon awesome-book-open" class="cls-2" d="M13.841,2.251a17.609,17.609,0,0,0-5.9,1.1.3.3,0,0,0-.186.261v7.222c0,.229.322.374.594.268a19.466,19.466,0,0,1,5.583-.931.719.719,0,0,0,.766-.609V2.86C14.7,2.509,14.311,2.23,13.841,2.251Zm-7.083,1.1a17.611,17.611,0,0,0-5.9-1.1C.392,2.23,0,2.509,0,2.86V9.565a.719.719,0,0,0,.766.609,19.464,19.464,0,0,1,5.584.932c.271.106.592-.039.592-.267V3.612A.292.292,0,0,0,6.758,3.354Z" transform="translate(5.719 3.369)"/>
</svg>
