<svg xmlns="http://www.w3.org/2000/svg" width="20.75" height="23.714" viewBox="0 0 20.75 23.714">
  <defs>
    <style>
      .cls-1 {
        fill: #034aa6;
      }
    </style>
  </defs>
  <path id="Icon_awesome-book" data-name="Icon awesome-book" class="cls-1" d="M20.75,16.674V1.112A1.109,1.109,0,0,0,19.638,0H4.446A4.447,4.447,0,0,0,0,4.446V19.267a4.447,4.447,0,0,0,4.446,4.446H19.638A1.109,1.109,0,0,0,20.75,22.6v-.741A1.12,1.12,0,0,0,20.337,21a10.329,10.329,0,0,1,0-3.46A1.1,1.1,0,0,0,20.75,16.674ZM5.928,6.206a.279.279,0,0,1,.278-.278h9.819a.279.279,0,0,1,.278.278v.926a.279.279,0,0,1-.278.278H6.206a.279.279,0,0,1-.278-.278Zm0,2.964a.279.279,0,0,1,.278-.278h9.819a.279.279,0,0,1,.278.278V10.1a.279.279,0,0,1-.278.278H6.206a.279.279,0,0,1-.278-.278ZM17.665,20.75H4.446a1.482,1.482,0,0,1,0-2.964H17.665A16.674,16.674,0,0,0,17.665,20.75Z"/>
</svg>
