<svg xmlns="http://www.w3.org/2000/svg" width="89.071" height="35" viewBox="0 0 89.071 35">
  <g id="bg-tabs" fill="none">
    <path d="M10.3,0h64.87c5.687,0,8.5,3.016,10.3,10l3.607,25H0V10C.08,5.738,1.9,1.437,4.994.694A28.547,28.547,0,0,1,10.3,0Z" stroke="none"/>
    <path d="M 10.29685211181641 2 C 9.186042785644531 2 6.204948425292969 2.397308349609375 5.628746032714844 2.590293884277344 L 5.546005249023438 2.618011474609375 L 5.461158752441406 2.638412475585938 C 4.312614440917969 2.914627075195313 3.523658752441406 4.188507080078125 3.155586242675781 4.923280715942383 C 2.457870483398438 6.316146850585938 2.037010192871094 8.172767639160156 2 10.01952362060547 L 2 33 L 86.76174163818359 33 L 83.50002288818359 10.39452934265137 C 82.66616821289063 7.192132949829102 81.66874694824219 5.094982147216797 80.36476135253906 3.80027961730957 C 79.11078643798828 2.555225372314453 77.50773620605469 2 75.1669921875 2 L 10.29685211181641 2 M 10.29685211181641 0 L 75.1669921875 0 C 80.85380554199219 0 83.66637420654297 3.016067504882813 85.46381378173828 10 L 89.071044921875 35 L 0 35 L 0 10 C 0.07965850830078125 5.738199234008789 1.902229309082031 1.437252044677734 4.993537902832031 0.6938514709472656 C 5.895042419433594 0.3918914794921875 9.125335693359375 0 10.29685211181641 0 Z" stroke="none" fill="#fff"/>
  </g>
</svg>
