<svg id="save" xmlns="http://www.w3.org/2000/svg" width="13.916" height="13.916" viewBox="0 0 13.916 13.916">
  <g id="Group_1964" data-name="Group 1964" transform="translate(4.104 11.47)">
    <g id="Group_1963" data-name="Group 1963">
      <path id="Path_1062" data-name="Path 1062" d="M156.3,422h-4.892a.408.408,0,1,0,0,.815H156.3a.408.408,0,1,0,0-.815Z" transform="translate(-151 -422)" fill="#fff"/>
    </g>
  </g>
  <g id="Group_1966" data-name="Group 1966" transform="translate(4.104 8.208)">
    <g id="Group_1965" data-name="Group 1965">
      <path id="Path_1063" data-name="Path 1063" d="M156.3,302h-4.892a.408.408,0,1,0,0,.815H156.3a.408.408,0,1,0,0-.815Z" transform="translate(-151 -302)" fill="#fff"/>
    </g>
  </g>
  <g id="Group_1968" data-name="Group 1968" transform="translate(4.104 9.839)">
    <g id="Group_1967" data-name="Group 1967">
      <path id="Path_1064" data-name="Path 1064" d="M156.3,362h-4.892a.408.408,0,0,0,0,.815H156.3a.408.408,0,0,0,0-.815Z" transform="translate(-151 -362)" fill="#fff"/>
    </g>
  </g>
  <g id="Group_1970" data-name="Group 1970" transform="translate(3.113 0.172)">
    <g id="Group_1969" data-name="Group 1969" transform="translate(0)">
      <rect id="Rectangle_3572" data-name="Rectangle 3572" width="6" height="3" transform="translate(-0.113 0.048)" fill="#fff"/>
    </g>
  </g>
  <g id="Group_1972" data-name="Group 1972" transform="translate(0 0)">
    <g id="Group_1971" data-name="Group 1971">
      <path id="Path_1065" data-name="Path 1065" d="M13.8,2.294,11.622.119A.408.408,0,0,0,11.334,0H9.812V3.941a.408.408,0,0,1-.408.408H2.881a.408.408,0,0,1-.408-.408V0H.408A.408.408,0,0,0,0,.408v13.1a.408.408,0,0,0,.408.408h13.1a.408.408,0,0,0,.408-.408V2.582A.408.408,0,0,0,13.8,2.294ZM10.627,13.1H3.289V7.393h7.339Z" transform="translate(0 0)" fill="#fff"/>
    </g>
  </g>
</svg>
