<svg xmlns="http://www.w3.org/2000/svg" xmlns:xlink="http://www.w3.org/1999/xlink" width="18" height="17" viewBox="0 0 18 17">
  <defs>
    <filter id="Path_1293" x="0" y="0" width="18" height="17" filterUnits="userSpaceOnUse">
      <feOffset dy="1" input="SourceAlpha"/>
      <feGaussianBlur result="blur"/>
      <feFlood flood-color="#e4ecfa"/>
      <feComposite operator="in" in2="blur"/>
      <feComposite in="SourceGraphic"/>
    </filter>
  </defs>
  <g id="Group_2028" data-name="Group 2028" transform="translate(-336 -266)">
    <g transform="matrix(1, 0, 0, 1, 336, 266)" filter="url(#Path_1293)">
      <g id="Path_1293-2" data-name="Path 1293" fill="#fafcfd">
        <path d="M 15 15.89999961853027 L 3 15.89999961853027 C 1.400930047035217 15.89999961853027 0.1000000014901161 14.59906959533691 0.1000000014901161 13 L 0.1000000014901161 3 C 0.1000000014901161 1.400930047035217 1.400930047035217 0.1000000014901161 3 0.1000000014901161 L 15 0.1000000014901161 C 16.59906959533691 0.1000000014901161 17.89999961853027 1.400930047035217 17.89999961853027 3 L 17.89999961853027 13 C 17.89999961853027 14.59906959533691 16.59906959533691 15.89999961853027 15 15.89999961853027 Z" stroke="none"/>
        <path d="M 3 0.1999998092651367 C 1.456069946289063 0.1999998092651367 0.2000007629394531 1.456069946289063 0.2000007629394531 3 L 0.2000007629394531 13 C 0.2000007629394531 14.54393005371094 1.456069946289063 15.80000019073486 3 15.80000019073486 L 15 15.80000019073486 C 16.54393005371094 15.80000019073486 17.79999923706055 14.54393005371094 17.79999923706055 13 L 17.79999923706055 3 C 17.79999923706055 1.456069946289063 16.54393005371094 0.1999998092651367 15 0.1999998092651367 L 3 0.1999998092651367 M 3 0 L 15 0 C 16.65685081481934 0 18 1.34315013885498 18 3 L 18 13 C 18 14.65684986114502 16.65685081481934 16 15 16 L 3 16 C 1.343149185180664 16 0 14.65684986114502 0 13 L 0 3 C 0 1.34315013885498 1.343149185180664 0 3 0 Z" stroke="none" fill="#e4ecfa"/>
      </g>
    </g>
    <path id="Icon-material-sort" d="M4.5,15.5H7.387V14.413H4.5ZM4.5,9v1.083h8.662V9Zm0,3.789h5.774V11.707H4.5Z" transform="translate(336.5 262)" fill="#bec4cf"/>
  </g>
</svg>
